<?xml version="1.0" standalone="no"?>
<svg viewBox="0 0 200 200" xmlns="http://www.w3.org/2000/svg">
  <path fill="#056402" d="M29.1,-54.2C36.4,-46.1,40.2,-35.8,49.8,-26.4C59.4,-17,74.6,-8.5,81.3,3.9C88,16.2,86.1,32.4,76.5,41.7C66.8,50.9,49.4,53.2,35.4,53.6C21.3,54,10.7,52.5,-1.1,54.3C-12.8,56.1,-25.6,61.3,-33.8,57.5C-41.9,53.7,-45.5,41,-53.6,29.9C-61.8,18.9,-74.6,9.4,-75.6,-0.6C-76.7,-10.6,-65.9,-21.2,-58.5,-33.7C-51.1,-46.1,-47.1,-60.4,-37.9,-67.4C-28.7,-74.5,-14.4,-74.4,-1.8,-71.4C10.9,-68.3,21.7,-62.4,29.1,-54.2Z" transform="translate(100 100)" />
</svg>
