<svg xmlns="http://www.w3.org/2000/svg" xmlns:xlink="http://www.w3.org/1999/xlink" width="1988" zoomAndPan="magnify" viewBox="0 0 1491 490.499985" height="654" preserveAspectRatio="xMidYMid meet" version="1.0"><path fill="#fbc002" d="M 1000.808594 -0.00390625 L 989.722656 13.378906 L 985.5625 28.433594 L 975.863281 36.796875 L 972.398438 43.488281 L 959.925781 51.855469 L 940.523438 48.511719 L 932.210938 39.3125 L 912.117188 41.820312 L 907.265625 42.65625 L 899.644531 49.347656 L 889.25 48.511719 L 883.015625 41.820312 L 868.464844 44.328125 L 869.15625 51.855469 L 858.765625 57.710938 L 842.132812 54.363281 L 837.285156 43.488281 L 832.433594 41.820312 L 824.8125 48.511719 L 818.578125 51.855469 L 810.953125 51.019531 L 805.410156 40.980469 L 796.402344 34.289062 L 781.851562 35.128906 L 771.457031 42.65625 L 769.382812 48.511719 L 762.449219 53.527344 L 749.980469 56.871094 L 747.210938 68.582031 L 739.585938 78.621094 L 736.8125 84.476562 L 729.191406 84.476562 L 724.34375 87.820312 L 709.792969 82.804688 L 704.941406 77.785156 L 693.855469 72.769531 L 686.234375 66.074219 L 679.996094 62.730469 L 679.304688 71.929688 L 674.453125 81.96875 L 659.902344 86.988281 L 654.359375 83.644531 L 648.125 80.296875 L 642.582031 86.152344 L 633.574219 88.660156 L 628.03125 81.128906 L 623.179688 77.785156 L 612.789062 76.953125 L 602.394531 73.605469 L 593.386719 69.421875 L 587.84375 65.238281 L 579.527344 73.605469 L 572.601562 70.257812 L 566.363281 62.730469 L 557.355469 66.074219 L 551.8125 60.21875 L 545.574219 62.730469 L 539.339844 61.058594 L 535.183594 54.363281 L 528.253906 58.546875 L 526.175781 68.582031 L 520.632812 70.257812 L 513.703125 72.769531 L 508.851562 65.238281 L 504.003906 59.382812 L 499.84375 60.21875 L 496.382812 55.203125 L 491.53125 58.546875 L 483.910156 59.382812 L 474.207031 55.203125 L 467.972656 52.691406 L 461.738281 41.820312 L 456.195312 39.3125 L 450.652344 37.636719 L 447.878906 31.78125 L 446.492188 24.25 L 437.484375 30.105469 L 430.558594 38.472656 L 426.398438 49.347656 L 416.226562 54.363281 L 411.15625 51.019531 L 407.691406 51.019531 L 400.761719 53.527344 L 397.992188 46.835938 L 397.992188 41.820312 L 394.523438 35.128906 L 388.980469 26.761719 L 388.980469 19.230469 L 388.289062 15.886719 L 381.363281 20.070312 L 375.820312 25.089844 L 374.429688 20.90625 L 370.277344 19.230469 L 366.117188 22.578125 L 361.265625 26.761719 L 353.648438 25.089844 L 348.792969 18.398438 L 341.867188 18.398438 L 337.015625 15.886719 L 330.085938 20.070312 L 323.15625 21.742188 L 317.613281 25.925781 L 314.84375 20.90625 L 309.300781 20.070312 L 302.371094 16.722656 L 296.828125 8.359375 L 287.128906 15.886719 L 281.585938 24.25 L 269.804688 29.269531 L 268.417969 24.25 L 260.796875 21.742188 L 255.253906 21.742188 L 253.871094 10.871094 L 244.863281 16.722656 L 238.625 18.398438 L 235.160156 14.214844 L 226.847656 16.722656 L 224.074219 20.90625 L 212.296875 22.578125 L 200.515625 17.558594 L 199.132812 8.359375 L 183.886719 14.214844 L 179.730469 26.761719 L 168.644531 39.3125 L 160.328125 44.328125 L 159.636719 40.980469 L 148.550781 35.128906 L 143.007812 35.128906 L 140.234375 43.488281 L 133.304688 51.019531 L 122.914062 50.179688 L 109.054688 47.671875 L 102.820312 46.835938 L 95.890625 37.636719 L 87.574219 32.617188 L 85.496094 43.488281 L 78.566406 49.347656 L 74.410156 54.363281 L 66.09375 56.039062 L 60.550781 46.003906 L 52.238281 40.144531 L 45.308594 41.820312 L 37.6875 51.855469 L 30.066406 48.511719 L 26.597656 41.820312 L 8.25 45.496094 L 1.988281 48.382812 L 1.765625 120.054688 L 1.835938 120.054688 L 1.835938 369.898438 L 1.765625 369.898438 L 1.988281 441.566406 L 8.25 444.453125 L 26.597656 448.132812 L 30.066406 441.441406 L 37.6875 438.097656 L 45.308594 448.132812 L 52.238281 449.808594 L 60.550781 443.949219 L 66.09375 433.914062 L 74.410156 435.589844 L 78.566406 440.605469 L 85.496094 446.460938 L 87.574219 457.335938 L 95.890625 452.316406 L 102.820312 443.117188 L 109.054688 442.28125 L 122.914062 439.769531 L 133.304688 438.933594 L 140.234375 446.460938 L 143.007812 454.828125 L 148.550781 454.828125 L 159.636719 448.972656 L 160.328125 445.625 L 168.644531 450.640625 L 179.730469 463.191406 L 183.886719 475.738281 L 199.132812 481.589844 L 200.515625 472.390625 L 212.296875 467.375 L 224.074219 469.046875 L 226.847656 473.230469 L 235.160156 475.738281 L 238.625 471.554688 L 244.863281 473.230469 L 253.871094 479.082031 L 255.253906 468.207031 L 260.796875 468.207031 L 268.417969 465.699219 L 269.804688 460.683594 L 281.585938 465.699219 L 287.128906 474.066406 L 296.828125 481.589844 L 302.371094 473.230469 L 309.300781 469.882812 L 314.84375 469.046875 L 317.613281 464.03125 L 323.15625 468.207031 L 330.085938 469.882812 L 337.015625 474.066406 L 341.867188 471.554688 L 348.792969 471.554688 L 353.648438 464.859375 L 361.265625 463.191406 L 366.117188 467.375 L 370.277344 470.722656 L 374.429688 469.046875 L 375.820312 464.859375 L 381.363281 469.882812 L 388.289062 474.066406 L 388.980469 470.722656 L 388.980469 463.191406 L 394.523438 454.828125 L 397.992188 448.132812 L 397.992188 443.117188 L 400.761719 436.421875 L 407.691406 438.933594 L 411.15625 438.933594 L 416.226562 435.589844 L 426.398438 440.605469 L 430.558594 451.480469 L 437.484375 459.84375 L 446.492188 465.699219 L 447.878906 458.171875 L 450.652344 452.316406 L 456.195312 450.640625 L 461.738281 448.132812 L 467.972656 437.257812 L 474.207031 434.75 L 483.910156 430.566406 L 491.53125 431.40625 L 496.382812 434.75 L 499.84375 429.734375 L 504.003906 430.566406 L 508.851562 424.710938 L 513.703125 417.183594 L 520.632812 419.695312 L 526.175781 421.367188 L 528.253906 431.40625 L 535.183594 435.589844 L 539.339844 428.898438 L 545.574219 427.21875 L 551.8125 429.734375 L 557.355469 423.875 L 566.363281 427.21875 L 572.601562 419.695312 L 579.527344 416.347656 L 587.84375 424.710938 L 593.386719 420.527344 L 602.394531 416.347656 L 612.789062 413 L 623.179688 412.167969 L 628.03125 408.820312 L 633.574219 401.292969 L 642.582031 403.800781 L 648.125 409.65625 L 654.359375 406.308594 L 659.902344 402.964844 L 674.453125 407.984375 L 679.304688 418.019531 L 679.996094 427.21875 L 686.234375 423.875 L 693.855469 417.183594 L 704.941406 412.167969 L 709.792969 407.148438 L 724.34375 402.128906 L 729.191406 405.476562 L 736.8125 405.476562 L 739.585938 411.328125 L 747.210938 421.367188 L 749.980469 433.082031 L 762.449219 436.421875 L 769.382812 441.441406 L 771.457031 447.296875 L 781.855469 454.828125 L 796.402344 455.660156 L 805.410156 448.972656 L 810.953125 438.933594 L 818.578125 438.097656 L 824.8125 441.441406 L 832.433594 448.132812 L 837.285156 446.460938 L 842.132812 435.589844 L 858.765625 432.242188 L 869.15625 438.097656 L 868.464844 445.625 L 883.015625 448.132812 L 889.25 441.441406 L 899.644531 440.605469 L 907.265625 447.296875 L 912.117188 448.132812 L 932.210938 450.640625 L 940.523438 441.441406 L 959.925781 438.097656 L 972.398438 446.460938 L 975.863281 453.152344 L 985.5625 461.519531 L 989.722656 476.574219 L 1000.808594 489.960938 L 1010.503906 481.589844 L 1019.511719 479.082031 L 1031.292969 478.246094 L 1034.066406 471.554688 L 1053.464844 471.554688 L 1068.015625 465.699219 L 1077.71875 454.828125 L 1086.03125 459.007812 L 1095.730469 454.828125 L 1106.125 460.683594 L 1116.519531 474.898438 L 1125.527344 460.683594 L 1138.691406 453.988281 L 1152.992188 452.316406 L 1152.992188 459.84375 L 1171.953125 464.859375 L 1178.878906 458.171875 L 1185.113281 458.171875 L 1194.125 460.683594 L 1200.359375 453.152344 L 1204.515625 459.84375 L 1214.21875 462.351562 L 1229.460938 464.859375 L 1238.46875 468.207031 L 1246.78125 478.246094 L 1260.640625 474.898438 L 1275.882812 468.207031 L 1282.121094 471.554688 L 1289.050781 467.375 L 1299.441406 462.351562 L 1311.914062 469.882812 L 1318.84375 463.191406 L 1327.851562 467.375 L 1333.394531 463.191406 L 1352.792969 460.683594 L 1357.648438 470.722656 L 1365.960938 462.351562 L 1374.277344 456.5 L 1375.660156 445.625 L 1379.125 452.316406 L 1385.359375 455.660156 L 1395.0625 463.191406 L 1397.832031 475.738281 L 1404.066406 470.722656 L 1408.921875 464.03125 L 1420.007812 459.007812 L 1420.699219 449.808594 L 1424.855469 443.117188 L 1434.558594 453.152344 L 1444.949219 461.519531 L 1445.644531 455.660156 L 1449.796875 459.007812 L 1459.5 468.207031 L 1467.121094 473.230469 L 1471.28125 469.882812 L 1471.28125 462.351562 L 1478.207031 464.859375 L 1483.363281 467.617188 L 1488.601562 460.683594 L 1488.464844 369.898438 L 1488.464844 120.054688 L 1488.601562 29.269531 L 1483.363281 22.335938 L 1478.207031 25.089844 L 1471.28125 27.597656 L 1471.28125 20.070312 L 1467.121094 16.722656 L 1459.5 21.742188 L 1449.796875 30.941406 L 1445.644531 34.289062 L 1444.949219 28.433594 L 1434.558594 36.796875 L 1424.855469 46.835938 L 1420.699219 40.144531 L 1420.007812 30.941406 L 1408.921875 25.925781 L 1404.066406 19.230469 L 1397.832031 14.214844 L 1395.0625 26.761719 L 1385.359375 34.289062 L 1379.125 37.636719 L 1375.660156 44.328125 L 1374.277344 33.449219 L 1365.960938 27.597656 L 1357.648438 19.230469 L 1352.792969 29.269531 L 1333.394531 26.761719 L 1327.851562 22.578125 L 1318.84375 26.761719 L 1311.914062 20.070312 L 1299.441406 27.597656 L 1289.050781 22.578125 L 1282.121094 18.398438 L 1275.882812 21.742188 L 1260.640625 15.050781 L 1246.785156 11.707031 L 1238.46875 21.742188 L 1229.460938 25.089844 L 1214.21875 27.597656 L 1204.515625 30.105469 L 1200.359375 36.796875 L 1194.125 29.269531 L 1185.113281 31.78125 L 1178.878906 31.78125 L 1171.953125 25.089844 L 1152.992188 30.105469 L 1152.992188 37.636719 L 1138.691406 35.964844 L 1125.527344 29.269531 L 1116.519531 15.050781 L 1106.125 29.269531 L 1095.734375 35.128906 L 1086.03125 30.941406 L 1077.71875 35.128906 L 1068.015625 24.25 L 1053.464844 18.398438 L 1034.066406 18.398438 L 1031.292969 11.707031 L 1019.511719 10.871094 L 1010.507812 8.359375 Z M 1000.808594 -0.00390625 " fill-opacity="1" fill-rule="nonzero"/><path fill="#056402" d="M 1000.808594 21.746094 L 989.722656 33.941406 L 985.5625 47.660156 L 975.863281 55.28125 L 972.398438 61.378906 L 959.925781 69.003906 L 940.523438 65.953125 L 932.210938 57.570312 L 912.117188 59.855469 L 907.265625 60.621094 L 899.644531 66.714844 L 889.25 65.953125 L 883.015625 59.855469 L 868.464844 62.140625 L 869.15625 69.003906 L 858.765625 74.335938 L 842.132812 71.289062 L 837.285156 61.378906 L 832.433594 59.855469 L 824.8125 65.953125 L 818.578125 69.003906 L 810.953125 68.238281 L 805.410156 59.09375 L 796.402344 52.996094 L 781.851562 53.757812 L 771.457031 60.621094 L 769.382812 65.953125 L 762.449219 70.523438 L 749.980469 73.574219 L 747.210938 84.246094 L 739.585938 93.390625 L 736.8125 98.726562 L 729.191406 98.726562 L 724.34375 101.773438 L 709.792969 97.203125 L 704.941406 92.628906 L 693.855469 88.058594 L 686.234375 81.960938 L 679.996094 78.910156 L 679.304688 87.292969 L 674.453125 96.441406 L 659.902344 101.015625 L 654.359375 97.96875 L 648.125 94.917969 L 642.582031 100.253906 L 633.574219 102.539062 L 628.03125 95.675781 L 623.179688 92.628906 L 612.789062 91.871094 L 602.394531 88.820312 L 593.386719 85.007812 L 587.84375 81.195312 L 579.527344 88.820312 L 572.601562 85.773438 L 566.363281 78.910156 L 557.355469 81.960938 L 551.8125 76.621094 L 545.574219 78.910156 L 539.339844 77.386719 L 535.183594 71.289062 L 528.253906 75.101562 L 526.175781 84.246094 L 520.632812 85.773438 L 513.703125 88.058594 L 508.851562 81.195312 L 504.003906 75.863281 L 499.84375 76.621094 L 496.382812 72.050781 L 491.53125 75.101562 L 483.910156 75.863281 L 474.207031 72.050781 L 467.972656 69.765625 L 461.738281 59.855469 L 456.195312 57.570312 L 450.652344 56.042969 L 447.878906 50.710938 L 446.492188 43.847656 L 437.484375 49.183594 L 430.558594 56.808594 L 426.398438 66.714844 L 416.226562 71.289062 L 411.15625 68.238281 L 407.691406 68.238281 L 400.761719 70.523438 L 397.992188 64.425781 L 397.992188 59.855469 L 394.523438 53.757812 L 388.980469 46.136719 L 388.980469 39.277344 L 388.289062 36.226562 L 381.363281 40.039062 L 375.820312 44.613281 L 374.429688 40.800781 L 370.277344 39.277344 L 366.117188 42.324219 L 361.265625 46.136719 L 353.648438 44.613281 L 348.792969 38.515625 L 341.867188 38.515625 L 337.015625 36.226562 L 330.085938 40.039062 L 323.15625 41.5625 L 317.613281 45.375 L 314.84375 40.800781 L 309.300781 40.039062 L 302.371094 36.988281 L 296.828125 29.367188 L 287.128906 36.226562 L 281.585938 43.847656 L 269.804688 48.421875 L 268.417969 43.847656 L 260.796875 41.5625 L 255.253906 41.5625 L 253.871094 31.65625 L 244.863281 36.988281 L 238.625 38.515625 L 235.160156 34.703125 L 226.847656 36.988281 L 224.074219 40.800781 L 212.296875 42.324219 L 200.515625 37.75 L 199.132812 29.367188 L 183.886719 34.703125 L 179.730469 46.136719 L 168.644531 57.570312 L 160.328125 62.140625 L 159.636719 59.09375 L 148.550781 53.757812 L 143.007812 53.757812 L 140.234375 61.378906 L 133.304688 68.238281 L 122.914062 67.476562 L 109.054688 65.191406 L 102.820312 64.425781 L 95.890625 56.042969 L 87.574219 51.472656 L 85.496094 61.378906 L 78.566406 66.714844 L 74.410156 71.289062 L 66.09375 72.8125 L 60.550781 63.667969 L 52.238281 58.328125 L 45.308594 59.855469 L 37.6875 69.003906 L 30.066406 65.953125 L 26.597656 59.855469 L 8.25 63.207031 L 1.988281 65.839844 L 1.765625 131.144531 L 1.835938 131.144531 L 1.835938 358.808594 L 1.765625 358.808594 L 1.988281 424.113281 L 8.25 426.742188 L 26.597656 430.097656 L 30.066406 424 L 37.6875 420.949219 L 45.308594 430.097656 L 52.238281 431.621094 L 60.550781 426.285156 L 66.09375 417.136719 L 74.410156 418.664062 L 78.566406 423.234375 L 85.496094 428.574219 L 87.574219 438.480469 L 95.890625 433.90625 L 102.820312 425.523438 L 109.054688 424.761719 L 122.914062 422.476562 L 133.304688 421.714844 L 140.234375 428.574219 L 143.007812 436.195312 L 148.550781 436.195312 L 159.636719 430.859375 L 160.328125 427.8125 L 168.644531 432.382812 L 179.730469 443.816406 L 183.886719 455.25 L 199.132812 460.582031 L 200.515625 452.199219 L 212.296875 447.628906 L 224.074219 449.152344 L 226.847656 452.964844 L 235.160156 455.25 L 238.625 451.4375 L 244.863281 452.964844 L 253.871094 458.296875 L 255.253906 448.386719 L 260.796875 448.386719 L 268.417969 446.101562 L 269.804688 441.53125 L 281.585938 446.101562 L 287.128906 453.726562 L 296.828125 460.582031 L 302.371094 452.964844 L 309.300781 449.914062 L 314.84375 449.152344 L 317.613281 444.582031 L 323.15625 448.386719 L 330.085938 449.914062 L 337.015625 453.726562 L 341.867188 451.4375 L 348.792969 451.4375 L 353.648438 445.339844 L 361.265625 443.816406 L 366.117188 447.628906 L 370.277344 450.679688 L 374.429688 449.152344 L 375.820312 445.339844 L 381.363281 449.914062 L 388.289062 453.726562 L 388.980469 450.679688 L 388.980469 443.816406 L 394.523438 436.195312 L 397.992188 430.097656 L 397.992188 425.523438 L 400.761719 419.425781 L 407.691406 421.714844 L 411.15625 421.714844 L 416.226562 418.664062 L 426.398438 423.234375 L 430.558594 433.144531 L 437.484375 440.769531 L 446.492188 446.101562 L 447.878906 439.242188 L 450.652344 433.90625 L 456.195312 432.382812 L 461.738281 430.097656 L 467.972656 420.1875 L 474.207031 417.902344 L 483.910156 414.089844 L 491.53125 414.851562 L 496.382812 417.902344 L 499.84375 413.332031 L 504.003906 414.089844 L 508.851562 408.753906 L 513.703125 401.894531 L 520.632812 404.179688 L 526.175781 405.707031 L 528.253906 414.851562 L 535.183594 418.664062 L 539.339844 412.566406 L 545.574219 411.039062 L 551.8125 413.332031 L 557.355469 407.992188 L 566.363281 411.039062 L 572.601562 404.179688 L 579.527344 401.132812 L 587.84375 408.753906 L 593.386719 404.941406 L 602.394531 401.132812 L 612.789062 398.082031 L 623.179688 397.324219 L 628.03125 394.273438 L 633.574219 387.414062 L 642.582031 389.699219 L 648.125 395.035156 L 654.359375 391.984375 L 659.902344 388.9375 L 674.453125 393.511719 L 679.304688 402.65625 L 679.996094 411.039062 L 686.234375 407.992188 L 693.855469 401.894531 L 704.941406 397.324219 L 709.792969 392.75 L 724.34375 388.175781 L 729.191406 391.226562 L 736.8125 391.226562 L 739.585938 396.558594 L 747.210938 405.707031 L 749.980469 416.378906 L 762.449219 419.425781 L 769.382812 424 L 771.457031 429.332031 L 781.855469 436.195312 L 796.402344 436.957031 L 805.410156 430.859375 L 810.953125 421.714844 L 818.578125 420.949219 L 824.8125 424 L 832.433594 430.097656 L 837.285156 428.574219 L 842.132812 418.664062 L 858.765625 415.617188 L 869.15625 420.949219 L 868.464844 427.8125 L 883.015625 430.097656 L 889.25 424 L 899.644531 423.234375 L 907.265625 429.332031 L 912.117188 430.097656 L 932.210938 432.382812 L 940.523438 424 L 959.925781 420.949219 L 972.398438 428.574219 L 975.863281 434.671875 L 985.5625 442.292969 L 989.722656 456.011719 L 1000.808594 468.207031 L 1010.503906 460.582031 L 1019.511719 458.296875 L 1031.292969 457.535156 L 1034.066406 451.4375 L 1053.464844 451.4375 L 1068.015625 446.101562 L 1077.71875 436.195312 L 1086.03125 440.003906 L 1095.730469 436.195312 L 1106.125 441.53125 L 1116.519531 454.484375 L 1125.527344 441.53125 L 1138.691406 435.429688 L 1152.992188 433.90625 L 1152.992188 440.769531 L 1171.953125 445.339844 L 1178.878906 439.242188 L 1185.113281 439.242188 L 1194.125 441.53125 L 1200.359375 434.671875 L 1204.515625 440.769531 L 1214.21875 443.054688 L 1229.460938 445.339844 L 1238.46875 448.386719 L 1246.78125 457.535156 L 1260.640625 454.484375 L 1275.882812 448.386719 L 1282.121094 451.4375 L 1289.050781 447.628906 L 1299.441406 443.054688 L 1311.914062 449.914062 L 1318.84375 443.816406 L 1327.851562 447.628906 L 1333.394531 443.816406 L 1352.792969 441.53125 L 1357.648438 450.679688 L 1365.960938 443.054688 L 1374.277344 437.71875 L 1375.660156 427.8125 L 1379.125 433.90625 L 1385.359375 436.957031 L 1395.0625 443.816406 L 1397.832031 455.25 L 1404.066406 450.679688 L 1408.921875 444.582031 L 1420.007812 440.003906 L 1420.699219 431.621094 L 1424.855469 425.523438 L 1434.558594 434.671875 L 1444.949219 442.292969 L 1445.644531 436.957031 L 1449.796875 440.003906 L 1459.5 448.386719 L 1467.121094 452.964844 L 1471.28125 449.914062 L 1471.28125 443.054688 L 1478.207031 445.339844 L 1483.363281 447.851562 L 1488.601562 441.53125 L 1488.464844 358.808594 L 1488.464844 131.144531 L 1488.601562 48.421875 L 1483.363281 42.105469 L 1478.207031 44.613281 L 1471.28125 46.898438 L 1471.28125 40.039062 L 1467.121094 36.988281 L 1459.5 41.5625 L 1449.796875 49.945312 L 1445.644531 52.996094 L 1444.949219 47.660156 L 1434.558594 55.28125 L 1424.855469 64.425781 L 1420.699219 58.328125 L 1420.007812 49.945312 L 1408.921875 45.375 L 1404.066406 39.277344 L 1397.832031 34.703125 L 1395.0625 46.136719 L 1385.359375 52.996094 L 1379.125 56.042969 L 1375.660156 62.140625 L 1374.277344 52.230469 L 1365.960938 46.898438 L 1357.648438 39.277344 L 1352.792969 48.421875 L 1333.394531 46.136719 L 1327.851562 42.324219 L 1318.84375 46.136719 L 1311.914062 40.039062 L 1299.441406 46.898438 L 1289.050781 42.324219 L 1282.121094 38.515625 L 1275.882812 41.5625 L 1260.640625 35.464844 L 1246.785156 32.417969 L 1238.46875 41.5625 L 1229.460938 44.613281 L 1214.21875 46.898438 L 1204.515625 49.183594 L 1200.359375 55.28125 L 1194.125 48.421875 L 1185.113281 50.710938 L 1178.878906 50.710938 L 1171.953125 44.613281 L 1152.992188 49.183594 L 1152.992188 56.042969 L 1138.691406 54.523438 L 1125.527344 48.421875 L 1116.519531 35.464844 L 1106.125 48.421875 L 1095.734375 53.757812 L 1086.03125 49.945312 L 1077.71875 53.757812 L 1068.015625 43.847656 L 1053.464844 38.515625 L 1034.066406 38.515625 L 1031.292969 32.417969 L 1019.511719 31.65625 L 1010.507812 29.367188 Z M 1000.808594 21.746094 " fill-opacity="1" fill-rule="nonzero"/></svg>