<svg xmlns="http://www.w3.org/2000/svg" xmlns:xlink="http://www.w3.org/1999/xlink" width="500" zoomAndPan="magnify" viewBox="0 0 375 48" height="64" preserveAspectRatio="xMidYMid meet" version="1.0"><defs><clipPath id="041d88d95d"><path d="M 3.828125 0 L 371.171875 0 L 371.171875 46.628906 L 3.828125 46.628906 Z M 3.828125 0 " clip-rule="nonzero"/></clipPath></defs><g clip-path="url(#041d88d95d)"><path fill="#ffffff" d="M 199.808594 4.867188 C 200.617188 4.644531 201.425781 4.203125 202.234375 4.203125 C 203.921875 4.203125 205.539062 4.71875 207.230469 4.058594 C 207.746094 3.835938 208.480469 3.984375 209.066406 4.132812 C 211.933594 4.9375 214.871094 4.792969 217.8125 4.792969 C 227.292969 4.792969 236.699219 4.9375 246.175781 4.867188 C 254.554688 4.867188 263.003906 4.71875 271.382812 4.644531 C 278.730469 4.570312 286.078125 4.570312 293.425781 4.5 C 294.898438 4.5 296.441406 4.570312 297.835938 4.203125 C 300.554688 3.394531 303.273438 3.46875 305.917969 3.984375 C 310.769531 4.9375 315.546875 4.644531 320.394531 3.835938 C 322.378906 4.058594 324.4375 4.351562 326.570312 4.570312 C 328.40625 4.792969 330.316406 4.277344 332.226562 5.234375 C 331.199219 7.511719 328.773438 6.996094 326.640625 7.953125 C 336.269531 8.613281 345.234375 9.203125 354.34375 9.863281 C 355.375 10.449219 356.402344 11.113281 357.503906 11.699219 C 362.503906 12.800781 362.503906 12.800781 365 14.492188 C 362.136719 15.59375 359.121094 14.933594 356.183594 15.519531 C 355.890625 15.667969 355.449219 15.886719 355.152344 16.035156 C 354.785156 16.257812 354.492188 16.476562 354.125 16.695312 C 352.949219 16.257812 351.847656 15.816406 350.597656 15.449219 C 350.011719 15.300781 349.421875 15.519531 349.273438 16.328125 C 351.332031 18.238281 351.332031 18.238281 361.328125 20.519531 C 359.414062 22.355469 359.414062 22.355469 355.082031 22.941406 C 355.375 23.089844 355.59375 23.238281 355.816406 23.238281 C 358.242188 23.824219 360.589844 24.78125 363.164062 24.78125 C 364.339844 24.78125 365.515625 25.441406 366.691406 25.882812 C 366.984375 25.957031 367.058594 26.46875 367.277344 26.765625 C 365.734375 27.574219 363.898438 26.835938 362.429688 28.085938 C 363.75 29.410156 365.515625 28.820312 367.058594 29.117188 C 368.453125 29.410156 369.925781 29.628906 371.171875 30.4375 C 370.660156 31.320312 369.628906 30.953125 368.675781 31.539062 C 368.382812 31.980469 367.941406 32.644531 367.351562 33.453125 C 361.695312 34.625 355.742188 33.746094 349.644531 34.332031 C 351.1875 35.363281 352.65625 34.921875 354.050781 34.996094 C 355.300781 35.066406 356.550781 34.996094 357.800781 35.140625 C 359.195312 35.289062 360.738281 34.847656 362.429688 35.800781 C 359.195312 35.949219 356.257812 36.171875 353.464844 36.316406 C 352.507812 37.050781 351.625 37.640625 350.523438 38.449219 C 348.539062 38.523438 346.1875 38.59375 343.910156 38.59375 C 338.03125 38.667969 332.152344 38.667969 326.273438 38.816406 C 325.027344 38.816406 323.777344 38.59375 322.675781 39.625 L 322.675781 42.050781 C 320.542969 43.371094 318.117188 42.5625 315.839844 43.078125 C 315.621094 43.8125 316.648438 43.8125 316.648438 44.472656 C 316.355469 44.546875 315.988281 44.769531 315.621094 44.769531 C 308.492188 44.839844 301.363281 44.988281 294.164062 44.988281 C 292.25 44.988281 290.414062 44.695312 288.355469 44.546875 C 286.886719 44.03125 285.269531 43.519531 283.949219 43.003906 C 283.285156 42.929688 282.84375 42.855469 282.40625 42.855469 C 268.738281 42.785156 255.140625 42.710938 241.472656 42.710938 C 229.054688 42.710938 216.710938 42.855469 204.292969 42.855469 C 202.453125 42.855469 200.542969 42.417969 198.414062 42.121094 C 197.089844 42.269531 195.398438 42.636719 193.710938 42.636719 C 189.300781 42.636719 184.890625 42.855469 180.554688 41.902344 C 179.96875 41.753906 179.304688 41.753906 178.644531 41.753906 C 172.105469 41.679688 165.636719 41.609375 159.097656 41.609375 C 158.730469 41.609375 158.363281 41.902344 157.921875 42.050781 C 158.214844 42.269531 158.511719 42.5625 158.804688 42.5625 C 161.304688 42.636719 163.800781 42.710938 166.375 42.710938 C 168.652344 42.710938 171.003906 42.710938 173.28125 42.710938 C 173.941406 42.710938 174.605469 42.636719 175.191406 42.855469 C 179.675781 44.546875 184.304688 43.886719 188.933594 43.960938 C 195.398438 44.105469 201.941406 43.8125 208.40625 44.179688 C 208.699219 44.179688 209.066406 44.398438 209.363281 44.546875 C 208.921875 44.621094 208.554688 44.839844 208.113281 44.839844 C 195.105469 44.695312 182.097656 44.988281 169.09375 44.328125 C 166.152344 44.179688 163.285156 43.59375 160.347656 43.8125 C 157.1875 44.03125 154.027344 43.738281 150.867188 43.738281 C 147.929688 43.738281 144.988281 43.738281 142.050781 43.664062 C 139.109375 43.664062 136.171875 43.59375 133.230469 43.59375 C 122.945312 43.59375 112.65625 43.519531 102.367188 43.519531 C 100.753906 43.519531 99.136719 43.445312 97.59375 43.222656 C 110.378906 42.710938 123.164062 43.519531 135.949219 42.269531 C 136.023438 42.269531 136.171875 42.050781 136.246094 41.902344 C 136.097656 41.753906 135.878906 41.535156 135.730469 41.535156 C 115.597656 40.503906 95.386719 41.3125 75.253906 41.609375 C 66.65625 41.753906 58.058594 42.417969 48.945312 43.078125 C 51.738281 44.179688 54.089844 43.59375 56.367188 43.8125 C 58.867188 44.03125 61.4375 43.886719 63.9375 44.03125 C 66.140625 44.179688 68.34375 43.8125 71.800781 44.546875 C 65.332031 44.839844 60.042969 44.839844 54.824219 45.28125 C 49.605469 45.796875 44.390625 46.164062 39.097656 46.238281 C 35.5 46.3125 31.972656 46.164062 28.445312 45.429688 C 26.605469 45.0625 24.695312 44.988281 22.785156 44.769531 C 22.199219 44.695312 21.609375 44.328125 20.875 44.03125 C 21.09375 43.445312 21.09375 42.636719 21.460938 42.417969 C 22.710938 41.679688 24.035156 41.167969 25.726562 40.359375 C 23.59375 40.136719 21.683594 40.066406 19.917969 39.625 C 17.863281 39.183594 15.953125 38.375 14.039062 37.785156 C 13.453125 37.125 13.746094 36.683594 14.335938 36.316406 C 14.777344 36.023438 15.214844 35.65625 16.023438 35.066406 C 11.910156 34.113281 7.5 34.699219 3.828125 32.789062 L 3.828125 29.410156 C 3.972656 29.117188 4.046875 28.894531 4.195312 28.75 C 5.515625 27.792969 6.839844 26.765625 7.941406 25.515625 C 8.457031 25 9.484375 24.925781 10.074219 24.707031 C 11.25 23.898438 11.027344 22.722656 11.25 21.765625 C 12.425781 20.8125 14.335938 21.472656 15.144531 19.855469 C 14.554688 17.359375 12.128906 16.769531 10.292969 15.519531 C 10.21875 15.152344 10.144531 14.710938 10.21875 14.34375 C 10.292969 13.976562 10.511719 13.609375 10.734375 13.167969 C 12.128906 12.140625 13.894531 12.359375 15.4375 11.773438 C 16.832031 11.257812 18.230469 10.746094 18.597656 10.597656 C 22.34375 9.9375 24.988281 9.421875 27.636719 8.980469 C 29.324219 8.761719 30.941406 8.6875 32.632812 8.539062 C 36.378906 8.246094 40.199219 7.953125 43.949219 7.804688 C 47.917969 7.585938 51.957031 7.4375 55.925781 7.289062 C 62.246094 7.070312 68.492188 6.777344 74.8125 6.554688 C 80.03125 6.410156 85.320312 6.261719 90.539062 6.1875 C 99.796875 6.042969 109.054688 6.113281 118.242188 5.746094 C 124.5625 5.527344 130.808594 6.042969 137.125 5.378906 C 142.125 5.96875 147.195312 5.675781 152.265625 5.746094 C 164.023438 5.894531 175.777344 6.042969 187.535156 6.1875 C 188.566406 6.1875 189.667969 6.1875 190.695312 6.335938 C 197.75 7.585938 204.953125 7.144531 212.082031 7.363281 C 214.359375 7.4375 216.710938 7.21875 218.988281 7.804688 C 219.796875 8.027344 220.679688 7.953125 221.488281 7.953125 C 225.453125 7.804688 229.496094 7.585938 233.390625 8.320312 C 239.417969 7.953125 245.515625 9.203125 251.542969 7.660156 C 252.496094 7.363281 253.597656 7.4375 254.773438 7.363281 C 254.554688 6.484375 253.964844 6.628906 253.597656 6.628906 C 250.660156 6.484375 247.71875 6.261719 244.78125 6.261719 C 232.140625 6.1875 219.574219 6.1875 206.9375 6.113281 C 205.027344 6.113281 203.1875 6.113281 201.351562 6.113281 C 200.765625 5.601562 200.25 5.234375 199.808594 4.792969 Z M 199.808594 4.867188 C 199 4.570312 198.265625 4.132812 197.457031 4.058594 C 195.179688 3.910156 192.828125 3.835938 190.550781 3.761719 C 184.007812 3.617188 177.542969 3.542969 171.003906 3.394531 C 170.5625 3.394531 170.121094 3.101562 168.652344 2.660156 C 171.589844 2.441406 173.429688 2.21875 175.265625 2.21875 C 179.894531 2.148438 184.523438 1.925781 189.152344 2.148438 C 200.910156 2.585938 212.667969 2.292969 224.425781 2.441406 C 231.996094 2.515625 239.5625 2.585938 247.058594 2.585938 C 261.976562 2.660156 276.894531 2.660156 291.8125 2.660156 C 298.496094 2.660156 305.257812 2.441406 311.945312 2.441406 C 324.730469 2.367188 337.589844 2.292969 350.378906 2.148438 C 351.332031 2.148438 352.289062 2.074219 353.242188 2 C 351.992188 1.558594 350.746094 1.484375 349.496094 1.484375 C 341.925781 1.414062 334.359375 1.484375 326.789062 1.414062 C 305.773438 1.191406 284.757812 1.117188 263.738281 1.265625 C 250.953125 1.339844 238.09375 1.414062 225.308594 1.414062 C 215.679688 1.414062 205.980469 1.265625 196.355469 1.117188 C 192.605469 1.042969 188.785156 1.339844 185.039062 0.457031 C 184.007812 0.238281 182.980469 0.308594 181.878906 0.308594 C 177.910156 0.238281 173.867188 0.0898438 169.902344 0.0898438 C 159.980469 -0.203125 149.914062 -0.277344 139.773438 -0.351562 C 136.023438 -0.351562 132.203125 -0.351562 128.457031 -0.351562 C 117.507812 -0.277344 106.628906 -0.203125 95.679688 -0.0585938 C 89.582031 0.015625 83.484375 -0.132812 77.382812 0.382812 C 72.753906 0.75 68.199219 0.898438 63.570312 1.042969 C 59.601562 1.117188 55.632812 1.191406 51.664062 1.191406 C 47.695312 1.265625 43.726562 1.632812 39.539062 3.027344 C 41.890625 3.394531 43.949219 3.542969 45.859375 3.101562 C 48.945312 2.367188 52.105469 2.515625 55.265625 2.367188 C 61.804688 2.21875 68.273438 2.074219 74.8125 1.925781 C 76.503906 1.851562 78.191406 1.851562 79.808594 1.558594 C 82.085938 1.117188 84.363281 1.117188 86.714844 1.117188 C 103.910156 1.117188 121.179688 1.265625 138.375 1.117188 C 145.503906 1.042969 152.632812 1.484375 159.757812 1.414062 C 159.980469 1.414062 160.128906 1.78125 160.566406 2.21875 C 156.96875 2.292969 153.585938 2.441406 150.28125 2.515625 C 146.898438 2.515625 143.59375 2.441406 140.214844 2.441406 C 136.832031 2.441406 133.527344 2.585938 130.144531 2.585938 C 126.765625 2.660156 123.386719 2.585938 120.078125 2.734375 C 116.917969 2.882812 113.683594 2.292969 109.128906 3.25 C 114.789062 3.324219 118.976562 3.324219 123.164062 3.324219 C 131.761719 3.394531 140.359375 3.394531 149.03125 3.542969 C 151.53125 3.617188 154.101562 3.394531 156.527344 4.132812 C 158.804688 4.867188 161.082031 4.9375 163.359375 4.9375 C 173.207031 4.9375 183.128906 4.9375 192.972656 4.867188 C 195.253906 4.867188 197.605469 4.71875 199.882812 4.644531 Z M 66.066406 4.570312 C 70.992188 4.5 75.988281 4.425781 80.910156 4.351562 C 75.765625 4.058594 70.550781 4.058594 65.332031 4.058594 C 65.1875 4.058594 65.039062 4.277344 64.890625 4.351562 C 65.257812 4.425781 65.699219 4.570312 66.066406 4.570312 M 44.316406 5.160156 C 43.066406 5.160156 41.816406 5.085938 40.640625 5.160156 C 39.613281 5.234375 38.511719 5.011719 36.675781 5.894531 C 41.007812 5.820312 44.535156 6.042969 48.0625 5.234375 C 46.742188 5.234375 45.492188 5.160156 44.316406 5.160156 " fill-opacity="1" fill-rule="nonzero"/></g></svg>