<svg xmlns="http://www.w3.org/2000/svg" xmlns:xlink="http://www.w3.org/1999/xlink" width="1920" zoomAndPan="magnify" viewBox="0 0 1440 809.999993" height="1080" preserveAspectRatio="xMidYMid meet" version="1.0"><defs><clipPath id="0735188bad"><path d="M 0 336.109375 L 1439 336.109375 L 1439 810 L 0 810 Z M 0 336.109375 " clip-rule="nonzero"/></clipPath><clipPath id="eac36ac993"><path d="M 0 21.34375 L 1439 21.34375 L 1439 511.84375 L 0 511.84375 Z M 0 21.34375 " clip-rule="nonzero"/></clipPath><clipPath id="8419bf9fe0"><path d="M 0 158 L 753.539062 158 L 753.539062 689.542969 L 0 689.542969 Z M 0 158 " clip-rule="nonzero"/></clipPath><clipPath id="57b262cd57"><path d="M 613.851562 158 L 1440 158 L 1440 689.542969 L 613.851562 689.542969 Z M 613.851562 158 " clip-rule="nonzero"/></clipPath></defs><g clip-path="url(#0735188bad)"><path fill="#fbc002" d="M 967.167969 336.105469 L 956.449219 349.046875 L 952.425781 363.609375 L 943.042969 371.695312 L 939.695312 378.167969 L 927.632812 386.261719 L 908.867188 383.023438 L 900.828125 374.128906 L 881.394531 376.550781 L 876.707031 377.363281 L 869.335938 383.832031 L 859.28125 383.023438 L 853.253906 376.550781 L 839.179688 378.976562 L 839.847656 386.261719 L 829.796875 391.921875 L 813.714844 388.6875 L 809.027344 378.167969 L 804.332031 376.550781 L 796.960938 383.023438 L 790.933594 386.261719 L 783.5625 385.449219 L 778.199219 375.742188 L 769.488281 369.269531 L 755.417969 370.082031 L 745.363281 377.363281 L 743.355469 383.023438 L 736.652344 387.875 L 724.59375 391.109375 L 721.914062 402.4375 L 714.542969 412.144531 L 711.859375 417.804688 L 704.488281 417.804688 L 699.800781 421.042969 L 685.726562 416.191406 L 681.039062 411.332031 L 670.316406 406.484375 L 662.945312 400.011719 L 656.914062 396.777344 L 656.242188 405.671875 L 651.550781 415.378906 L 637.480469 420.238281 L 632.117188 417 L 626.085938 413.765625 L 620.726562 419.425781 L 612.015625 421.851562 L 606.652344 414.570312 L 601.964844 411.332031 L 591.914062 410.53125 L 581.859375 407.292969 L 573.148438 403.246094 L 567.789062 399.199219 L 559.75 407.292969 L 553.046875 404.058594 L 547.015625 396.773438 L 538.304688 400.011719 L 532.945312 394.347656 L 526.914062 396.773438 L 520.882812 395.15625 L 516.863281 388.6875 L 510.160156 392.730469 L 508.152344 402.4375 L 502.789062 404.058594 L 496.089844 406.484375 L 491.398438 399.199219 L 486.707031 393.539062 L 482.6875 394.347656 L 479.335938 389.496094 L 474.644531 392.730469 L 467.273438 393.539062 L 457.894531 389.496094 L 451.859375 387.066406 L 445.832031 376.550781 L 440.46875 374.128906 L 435.109375 372.507812 L 432.429688 366.84375 L 431.089844 359.5625 L 422.378906 365.222656 L 415.675781 373.316406 L 411.65625 383.832031 L 401.820312 388.6875 L 396.914062 385.449219 L 393.5625 385.449219 L 386.863281 387.875 L 384.183594 381.402344 L 384.183594 376.550781 L 380.828125 370.082031 L 375.46875 361.992188 L 375.46875 354.707031 L 374.800781 351.472656 L 368.101562 355.519531 L 362.738281 360.371094 L 361.398438 356.328125 L 357.378906 354.707031 L 353.359375 357.945312 L 348.664062 361.992188 L 341.296875 360.371094 L 336.605469 353.902344 L 329.902344 353.902344 L 325.214844 351.472656 L 318.511719 355.519531 L 311.808594 357.136719 L 306.449219 361.179688 L 303.769531 356.328125 L 298.410156 355.519531 L 291.710938 352.28125 L 286.347656 344.191406 L 276.964844 351.472656 L 271.605469 359.5625 L 260.210938 364.417969 L 258.871094 359.5625 L 251.5 357.136719 L 246.140625 357.136719 L 244.800781 346.621094 L 236.089844 352.28125 L 230.058594 353.902344 L 226.707031 349.859375 L 218.667969 352.28125 L 215.984375 356.328125 L 204.597656 357.945312 L 193.203125 353.089844 L 191.863281 344.191406 L 177.121094 349.859375 L 173.097656 361.992188 L 162.378906 374.128906 L 154.339844 378.976562 L 153.667969 375.742188 L 142.945312 370.082031 L 137.585938 370.082031 L 134.90625 378.167969 L 128.203125 385.449219 L 118.152344 384.640625 L 104.75 382.214844 L 98.71875 381.402344 L 92.019531 372.507812 L 83.976562 367.65625 L 81.964844 378.167969 L 75.265625 383.832031 L 71.242188 388.6875 L 63.203125 390.304688 L 57.84375 380.597656 L 49.804688 374.929688 L 43.101562 376.550781 L 35.726562 386.261719 L 28.359375 383.023438 L 25.007812 376.550781 L 7.261719 380.109375 L 1.203125 382.902344 L 0.992188 452.214844 L 1.058594 452.214844 L 1.058594 693.839844 L 0.992188 693.839844 L 1.203125 763.152344 L 7.261719 765.945312 L 25.007812 769.503906 L 28.359375 763.03125 L 35.726562 759.796875 L 43.101562 769.503906 L 49.804688 771.121094 L 57.84375 765.457031 L 63.203125 755.75 L 71.242188 757.371094 L 75.265625 762.222656 L 81.964844 767.886719 L 83.976562 778.398438 L 92.019531 773.546875 L 98.71875 764.648438 L 104.75 763.839844 L 118.152344 761.414062 L 128.203125 760.605469 L 134.90625 767.886719 L 137.585938 775.976562 L 142.945312 775.976562 L 153.667969 770.3125 L 154.339844 767.078125 L 162.378906 771.929688 L 173.097656 784.066406 L 177.121094 796.199219 L 191.863281 801.859375 L 193.203125 792.960938 L 204.597656 788.109375 L 215.984375 789.726562 L 218.667969 793.773438 L 226.707031 796.199219 L 230.058594 792.152344 L 236.089844 793.773438 L 244.800781 799.433594 L 246.140625 788.914062 L 251.5 788.914062 L 258.871094 786.488281 L 260.210938 781.640625 L 271.605469 786.488281 L 276.964844 794.582031 L 286.347656 801.859375 L 291.710938 793.773438 L 298.410156 790.535156 L 303.769531 789.726562 L 306.449219 784.875 L 311.808594 788.914062 L 318.511719 790.535156 L 325.214844 794.582031 L 329.902344 792.152344 L 336.605469 792.152344 L 341.296875 785.679688 L 348.664062 784.066406 L 353.359375 788.109375 L 357.378906 791.347656 L 361.398438 789.726562 L 362.738281 785.679688 L 368.101562 790.535156 L 374.800781 794.582031 L 375.46875 791.347656 L 375.46875 784.066406 L 380.832031 775.976562 L 384.183594 769.503906 L 384.183594 764.648438 L 386.863281 758.175781 L 393.5625 760.605469 L 396.914062 760.605469 L 401.820312 757.371094 L 411.65625 762.222656 L 415.675781 772.738281 L 422.378906 780.828125 L 431.089844 786.488281 L 432.429688 779.210938 L 435.109375 773.546875 L 440.46875 771.929688 L 445.832031 769.503906 L 451.859375 758.984375 L 457.894531 756.558594 L 467.273438 752.511719 L 474.644531 753.324219 L 479.335938 756.558594 L 482.6875 751.707031 L 486.707031 752.511719 L 491.398438 746.851562 L 496.089844 739.570312 L 502.789062 741.996094 L 508.152344 743.617188 L 510.160156 753.324219 L 516.863281 757.371094 L 520.882812 750.898438 L 526.914062 749.277344 L 532.945312 751.707031 L 538.304688 746.042969 L 547.015625 749.277344 L 553.046875 741.996094 L 559.75 738.761719 L 567.789062 746.851562 L 573.148438 742.804688 L 581.859375 738.761719 L 591.914062 735.527344 L 601.964844 734.71875 L 606.652344 731.484375 L 612.015625 724.203125 L 620.726562 726.628906 L 626.085938 732.289062 L 632.117188 729.054688 L 637.480469 725.816406 L 651.550781 730.671875 L 656.242188 740.378906 L 656.914062 749.277344 L 662.945312 746.042969 L 670.316406 739.570312 L 681.039062 734.71875 L 685.726562 729.863281 L 699.800781 725.011719 L 704.488281 728.246094 L 711.859375 728.246094 L 714.542969 733.90625 L 721.914062 743.617188 L 724.59375 754.945312 L 736.652344 758.175781 L 743.355469 763.03125 L 745.363281 768.691406 L 755.417969 775.976562 L 769.488281 776.78125 L 778.199219 770.3125 L 783.5625 760.605469 L 790.933594 759.796875 L 796.960938 763.03125 L 804.335938 769.503906 L 809.027344 767.886719 L 813.714844 757.371094 L 829.796875 754.132812 L 839.847656 759.796875 L 839.179688 767.078125 L 853.253906 769.503906 L 859.28125 763.03125 L 869.335938 762.222656 L 876.707031 768.691406 L 881.398438 769.503906 L 900.828125 771.929688 L 908.867188 763.03125 L 927.632812 759.796875 L 939.695312 767.886719 L 943.042969 774.355469 L 952.425781 782.445312 L 956.449219 797.007812 L 967.167969 809.953125 L 976.550781 801.859375 L 985.261719 799.433594 L 996.652344 798.625 L 999.335938 792.152344 L 1018.097656 792.152344 L 1032.167969 786.488281 L 1041.550781 775.976562 L 1049.589844 780.019531 L 1058.972656 775.976562 L 1069.023438 781.640625 L 1079.078125 795.386719 L 1087.789062 781.640625 L 1100.519531 775.164062 L 1114.347656 773.546875 L 1114.347656 780.828125 L 1132.683594 785.679688 L 1139.386719 779.210938 L 1145.414062 779.210938 L 1154.128906 781.640625 L 1160.15625 774.355469 L 1164.179688 780.828125 L 1173.5625 783.253906 L 1188.300781 785.679688 L 1197.011719 788.914062 L 1205.054688 798.625 L 1218.457031 795.386719 L 1233.199219 788.914062 L 1239.230469 792.152344 L 1245.929688 788.109375 L 1255.980469 783.253906 L 1268.042969 790.535156 L 1274.746094 784.066406 L 1283.457031 788.109375 L 1288.816406 784.066406 L 1307.578125 781.640625 L 1312.269531 791.347656 L 1320.3125 783.253906 L 1328.355469 777.59375 L 1329.695312 767.078125 L 1333.042969 773.546875 L 1339.074219 776.78125 L 1348.453125 784.066406 L 1351.136719 796.199219 L 1357.167969 791.347656 L 1361.859375 784.875 L 1372.582031 780.019531 L 1373.25 771.121094 L 1377.269531 764.648438 L 1386.652344 774.355469 L 1396.703125 782.445312 L 1397.375 776.78125 L 1401.390625 780.019531 L 1410.773438 788.914062 L 1418.144531 793.773438 L 1422.167969 790.535156 L 1422.167969 783.253906 L 1428.867188 785.679688 L 1433.851562 788.34375 L 1438.917969 781.640625 L 1438.785156 693.839844 L 1438.785156 452.214844 L 1438.917969 364.417969 L 1433.851562 357.710938 L 1428.867188 360.371094 L 1422.167969 362.796875 L 1422.167969 355.519531 L 1418.144531 352.285156 L 1410.773438 357.136719 L 1401.390625 366.035156 L 1397.375 369.269531 L 1396.703125 363.609375 L 1386.652344 371.695312 L 1377.269531 381.402344 L 1373.25 374.929688 L 1372.582031 366.035156 L 1361.859375 361.179688 L 1357.167969 354.707031 L 1351.136719 349.859375 L 1348.457031 361.992188 L 1339.074219 369.269531 L 1333.042969 372.507812 L 1329.695312 378.976562 L 1328.355469 368.460938 L 1320.3125 362.796875 L 1312.273438 354.707031 L 1307.578125 364.417969 L 1288.816406 361.992188 L 1283.457031 357.945312 L 1274.746094 361.992188 L 1268.042969 355.519531 L 1255.980469 362.796875 L 1245.929688 357.945312 L 1239.230469 353.902344 L 1233.199219 357.136719 L 1218.457031 350.664062 L 1205.054688 347.429688 L 1197.011719 357.136719 L 1188.300781 360.371094 L 1173.5625 362.796875 L 1164.179688 365.222656 L 1160.15625 371.695312 L 1154.128906 364.417969 L 1145.414062 366.84375 L 1139.386719 366.84375 L 1132.683594 360.371094 L 1114.347656 365.222656 L 1114.347656 372.507812 L 1100.519531 370.890625 L 1087.789062 364.417969 L 1079.078125 350.664062 L 1069.023438 364.417969 L 1058.972656 370.082031 L 1049.589844 366.035156 L 1041.550781 370.082031 L 1032.167969 359.5625 L 1018.097656 353.902344 L 999.335938 353.902344 L 996.652344 347.429688 L 985.261719 346.621094 L 976.550781 344.195312 Z M 967.167969 336.105469 " fill-opacity="1" fill-rule="nonzero"/></g><path fill="#056402" d="M 967.167969 357.140625 L 956.449219 368.933594 L 952.425781 382.203125 L 943.042969 389.570312 L 939.695312 395.46875 L 927.632812 402.84375 L 908.867188 399.894531 L 900.828125 391.785156 L 881.394531 393.996094 L 876.707031 394.734375 L 869.335938 400.628906 L 859.28125 399.894531 L 853.253906 393.996094 L 839.179688 396.207031 L 839.847656 402.84375 L 829.796875 408 L 813.714844 405.054688 L 809.027344 395.46875 L 804.332031 393.996094 L 796.960938 399.894531 L 790.933594 402.84375 L 783.5625 402.105469 L 778.199219 393.257812 L 769.488281 387.359375 L 755.417969 388.101562 L 745.363281 394.734375 L 743.355469 399.894531 L 736.652344 404.3125 L 724.59375 407.261719 L 721.914062 417.582031 L 714.542969 426.429688 L 711.859375 431.585938 L 704.488281 431.585938 L 699.800781 434.535156 L 685.726562 430.117188 L 681.039062 425.691406 L 670.316406 421.269531 L 662.945312 415.375 L 656.914062 412.425781 L 656.242188 420.53125 L 651.550781 429.378906 L 637.480469 433.804688 L 632.117188 430.855469 L 626.085938 427.90625 L 620.726562 433.066406 L 612.015625 435.273438 L 606.652344 428.640625 L 601.964844 425.691406 L 591.914062 424.957031 L 581.859375 422.007812 L 573.148438 418.320312 L 567.789062 414.632812 L 559.75 422.007812 L 553.046875 419.058594 L 547.015625 412.425781 L 538.304688 415.375 L 532.945312 410.210938 L 526.914062 412.425781 L 520.882812 410.949219 L 516.863281 405.054688 L 510.160156 408.738281 L 508.152344 417.582031 L 502.789062 419.058594 L 496.089844 421.269531 L 491.398438 414.632812 L 486.707031 409.476562 L 482.6875 410.210938 L 479.335938 405.792969 L 474.644531 408.738281 L 467.273438 409.476562 L 457.894531 405.792969 L 451.859375 403.578125 L 445.832031 393.996094 L 440.46875 391.785156 L 435.109375 390.308594 L 432.429688 385.152344 L 431.089844 378.515625 L 422.378906 383.675781 L 415.675781 391.046875 L 411.65625 400.628906 L 401.820312 405.054688 L 396.914062 402.105469 L 393.5625 402.105469 L 386.863281 404.3125 L 384.183594 398.417969 L 384.183594 393.996094 L 380.828125 388.101562 L 375.46875 380.726562 L 375.46875 374.09375 L 374.800781 371.144531 L 368.101562 374.832031 L 362.738281 379.253906 L 361.398438 375.566406 L 357.378906 374.09375 L 353.359375 377.042969 L 348.664062 380.726562 L 341.296875 379.253906 L 336.605469 373.355469 L 329.902344 373.355469 L 325.214844 371.144531 L 318.511719 374.832031 L 311.808594 376.304688 L 306.449219 379.988281 L 303.769531 375.566406 L 298.410156 374.832031 L 291.710938 371.882812 L 286.347656 364.511719 L 276.964844 371.144531 L 271.605469 378.515625 L 260.210938 382.9375 L 258.871094 378.515625 L 251.5 376.304688 L 246.140625 376.304688 L 244.800781 366.722656 L 236.089844 371.882812 L 230.058594 373.355469 L 226.707031 369.671875 L 218.667969 371.882812 L 215.984375 375.566406 L 204.597656 377.042969 L 193.203125 372.617188 L 191.863281 364.511719 L 177.121094 369.671875 L 173.097656 380.726562 L 162.378906 391.785156 L 154.339844 396.207031 L 153.667969 393.257812 L 142.945312 388.101562 L 137.585938 388.101562 L 134.90625 395.46875 L 128.203125 402.105469 L 118.152344 401.367188 L 104.75 399.15625 L 98.71875 398.417969 L 92.019531 390.308594 L 83.976562 385.890625 L 81.964844 395.46875 L 75.265625 400.628906 L 71.242188 405.054688 L 63.203125 406.527344 L 57.84375 397.683594 L 49.804688 392.519531 L 43.101562 393.996094 L 35.726562 402.84375 L 28.359375 399.894531 L 25.007812 393.996094 L 7.261719 397.238281 L 1.203125 399.78125 L 0.992188 462.941406 L 1.058594 462.941406 L 1.058594 683.113281 L 0.992188 683.113281 L 1.203125 746.269531 L 7.261719 748.816406 L 25.007812 752.058594 L 28.359375 746.160156 L 35.726562 743.210938 L 43.101562 752.058594 L 49.804688 753.53125 L 57.84375 748.371094 L 63.203125 739.527344 L 71.242188 741.003906 L 75.265625 745.421875 L 81.964844 750.585938 L 83.976562 760.167969 L 92.019531 755.742188 L 98.71875 747.636719 L 104.75 746.898438 L 118.152344 744.6875 L 128.203125 743.953125 L 134.90625 750.585938 L 137.585938 757.957031 L 142.945312 757.957031 L 153.667969 752.796875 L 154.339844 749.847656 L 162.378906 754.269531 L 173.097656 765.328125 L 177.121094 776.382812 L 191.863281 781.542969 L 193.203125 773.433594 L 204.597656 769.015625 L 215.984375 770.484375 L 218.667969 774.171875 L 226.707031 776.382812 L 230.058594 772.695312 L 236.089844 774.171875 L 244.800781 779.332031 L 246.140625 769.746094 L 251.5 769.746094 L 258.871094 767.539062 L 260.210938 763.117188 L 271.605469 767.539062 L 276.964844 774.910156 L 286.347656 781.542969 L 291.710938 774.171875 L 298.410156 771.226562 L 303.769531 770.484375 L 306.449219 766.066406 L 311.808594 769.746094 L 318.511719 771.226562 L 325.214844 774.910156 L 329.902344 772.695312 L 336.605469 772.695312 L 341.296875 766.800781 L 348.664062 765.328125 L 353.359375 769.015625 L 357.378906 771.964844 L 361.398438 770.484375 L 362.738281 766.800781 L 368.101562 771.226562 L 374.800781 774.910156 L 375.46875 771.964844 L 375.46875 765.328125 L 380.832031 757.957031 L 384.183594 752.058594 L 384.183594 747.636719 L 386.863281 741.738281 L 393.5625 743.953125 L 396.914062 743.953125 L 401.820312 741.003906 L 411.65625 745.421875 L 415.675781 755.007812 L 422.378906 762.378906 L 431.089844 767.539062 L 432.429688 760.90625 L 435.109375 755.742188 L 440.46875 754.269531 L 445.832031 752.058594 L 451.859375 742.472656 L 457.894531 740.265625 L 467.273438 736.578125 L 474.644531 737.316406 L 479.335938 740.265625 L 482.6875 735.84375 L 486.707031 736.578125 L 491.398438 731.417969 L 496.089844 724.78125 L 502.789062 726.996094 L 508.152344 728.46875 L 510.160156 737.316406 L 516.863281 741.003906 L 520.882812 735.105469 L 526.914062 733.628906 L 532.945312 735.84375 L 538.304688 730.679688 L 547.015625 733.628906 L 553.046875 726.996094 L 559.75 724.046875 L 567.789062 731.417969 L 573.148438 727.730469 L 581.859375 724.046875 L 591.914062 721.097656 L 601.964844 720.363281 L 606.652344 717.414062 L 612.015625 710.78125 L 620.726562 712.992188 L 626.085938 718.148438 L 632.117188 715.203125 L 637.480469 712.253906 L 651.550781 716.675781 L 656.242188 725.519531 L 656.914062 733.628906 L 662.945312 730.679688 L 670.316406 724.78125 L 681.039062 720.363281 L 685.726562 715.941406 L 699.800781 711.515625 L 704.488281 714.464844 L 711.859375 714.464844 L 714.542969 719.625 L 721.914062 728.46875 L 724.59375 738.792969 L 736.652344 741.738281 L 743.355469 746.160156 L 745.363281 751.320312 L 755.417969 757.957031 L 769.488281 758.691406 L 778.199219 752.796875 L 783.5625 743.953125 L 790.933594 743.214844 L 796.960938 746.160156 L 804.335938 752.058594 L 809.027344 750.585938 L 813.714844 741.003906 L 829.796875 738.054688 L 839.847656 743.214844 L 839.179688 749.847656 L 853.253906 752.058594 L 859.28125 746.160156 L 869.335938 745.421875 L 876.707031 751.320312 L 881.398438 752.058594 L 900.828125 754.269531 L 908.867188 746.160156 L 927.632812 743.214844 L 939.695312 750.585938 L 943.042969 756.480469 L 952.425781 763.851562 L 956.449219 777.121094 L 967.167969 788.917969 L 976.550781 781.542969 L 985.261719 779.332031 L 996.652344 778.59375 L 999.335938 772.695312 L 1018.097656 772.695312 L 1032.167969 767.539062 L 1041.550781 757.957031 L 1049.589844 761.640625 L 1058.972656 757.957031 L 1069.023438 763.117188 L 1079.078125 775.644531 L 1087.789062 763.117188 L 1100.519531 757.21875 L 1114.347656 755.742188 L 1114.347656 762.378906 L 1132.683594 766.800781 L 1139.386719 760.90625 L 1145.414062 760.90625 L 1154.128906 763.117188 L 1160.15625 756.480469 L 1164.179688 762.378906 L 1173.5625 764.589844 L 1188.300781 766.800781 L 1197.011719 769.746094 L 1205.054688 778.59375 L 1218.457031 775.644531 L 1233.199219 769.746094 L 1239.230469 772.695312 L 1245.929688 769.015625 L 1255.980469 764.589844 L 1268.042969 771.226562 L 1274.746094 765.328125 L 1283.457031 769.015625 L 1288.816406 765.328125 L 1307.578125 763.117188 L 1312.269531 771.964844 L 1320.3125 764.589844 L 1328.355469 759.429688 L 1329.695312 749.847656 L 1333.042969 755.742188 L 1339.074219 758.691406 L 1348.453125 765.328125 L 1351.136719 776.382812 L 1357.167969 771.964844 L 1361.859375 766.066406 L 1372.582031 761.640625 L 1373.25 753.53125 L 1377.269531 747.636719 L 1386.652344 756.480469 L 1396.703125 763.851562 L 1397.375 758.691406 L 1401.390625 761.640625 L 1410.773438 769.746094 L 1418.144531 774.171875 L 1422.167969 771.226562 L 1422.167969 764.589844 L 1428.867188 766.800781 L 1433.851562 769.226562 L 1438.917969 763.117188 L 1438.785156 683.113281 L 1438.785156 462.941406 L 1438.917969 382.9375 L 1433.851562 376.828125 L 1428.867188 379.253906 L 1422.167969 381.464844 L 1422.167969 374.832031 L 1418.144531 371.882812 L 1410.773438 376.304688 L 1401.390625 384.414062 L 1397.375 387.359375 L 1396.703125 382.203125 L 1386.652344 389.570312 L 1377.269531 398.417969 L 1373.25 392.519531 L 1372.582031 384.414062 L 1361.859375 379.988281 L 1357.167969 374.09375 L 1351.136719 369.671875 L 1348.457031 380.726562 L 1339.074219 387.359375 L 1333.042969 390.308594 L 1329.695312 396.207031 L 1328.355469 386.621094 L 1320.3125 381.464844 L 1312.273438 374.09375 L 1307.578125 382.9375 L 1288.816406 380.726562 L 1283.457031 377.042969 L 1274.746094 380.726562 L 1268.042969 374.832031 L 1255.980469 381.464844 L 1245.929688 377.042969 L 1239.230469 373.355469 L 1233.199219 376.304688 L 1218.457031 370.410156 L 1205.054688 367.460938 L 1197.011719 376.304688 L 1188.300781 379.253906 L 1173.5625 381.464844 L 1164.179688 383.675781 L 1160.15625 389.570312 L 1154.128906 382.9375 L 1145.414062 385.152344 L 1139.386719 385.152344 L 1132.683594 379.253906 L 1114.347656 383.675781 L 1114.347656 390.308594 L 1100.519531 388.839844 L 1087.789062 382.9375 L 1079.078125 370.40625 L 1069.023438 382.9375 L 1058.972656 388.101562 L 1049.589844 384.414062 L 1041.550781 388.101562 L 1032.167969 378.515625 L 1018.097656 373.355469 L 999.335938 373.355469 L 996.652344 367.460938 L 985.261719 366.722656 L 976.550781 364.511719 Z M 967.167969 357.140625 " fill-opacity="1" fill-rule="nonzero"/><g clip-path="url(#eac36ac993)"><path fill="#fbc002" d="M 950.277344 21.339844 L 939.171875 34.746094 L 935.007812 49.828125 L 925.289062 58.203125 L 921.820312 64.90625 L 909.328125 73.289062 L 889.894531 69.9375 L 881.566406 60.722656 L 861.4375 63.234375 L 856.582031 64.074219 L 848.945312 70.773438 L 838.535156 69.9375 L 832.289062 63.234375 L 817.714844 65.746094 L 818.40625 73.289062 L 807.996094 79.152344 L 791.339844 75.800781 L 786.484375 64.90625 L 781.625 63.234375 L 773.988281 69.9375 L 767.742188 73.289062 L 760.109375 72.449219 L 754.554688 62.394531 L 745.535156 55.691406 L 730.960938 56.53125 L 720.546875 64.074219 L 718.46875 69.9375 L 711.523438 74.960938 L 699.03125 78.3125 L 696.257812 90.042969 L 688.621094 100.097656 L 685.84375 105.960938 L 678.210938 105.960938 L 673.351562 109.3125 L 658.777344 104.289062 L 653.921875 99.257812 L 642.816406 94.234375 L 635.179688 87.53125 L 628.933594 84.179688 L 628.238281 93.394531 L 623.382812 103.449219 L 608.804688 108.480469 L 603.253906 105.128906 L 597.007812 101.777344 L 591.453125 107.640625 L 582.433594 110.152344 L 576.878906 102.609375 L 572.023438 99.257812 L 561.613281 98.425781 L 551.199219 95.074219 L 542.175781 90.882812 L 536.625 86.691406 L 528.296875 95.074219 L 521.359375 91.722656 L 515.109375 84.179688 L 506.089844 87.53125 L 500.535156 81.664062 L 494.289062 84.179688 L 488.042969 82.503906 L 483.878906 75.800781 L 476.9375 79.992188 L 474.855469 90.042969 L 469.304688 91.722656 L 462.363281 94.234375 L 457.503906 86.691406 L 452.648438 80.828125 L 448.480469 81.664062 L 445.011719 76.640625 L 440.15625 79.992188 L 432.519531 80.828125 L 422.800781 76.640625 L 416.554688 74.125 L 410.308594 63.234375 L 404.757812 60.722656 L 399.207031 59.042969 L 396.425781 53.179688 L 395.039062 45.636719 L 386.019531 51.5 L 379.078125 59.882812 L 374.914062 70.773438 L 364.722656 75.800781 L 359.644531 72.449219 L 356.171875 72.449219 L 349.234375 74.960938 L 346.457031 68.257812 L 346.457031 63.234375 L 342.984375 56.53125 L 337.433594 48.152344 L 337.433594 40.609375 L 336.742188 37.257812 L 329.800781 41.449219 L 324.25 46.476562 L 322.859375 42.285156 L 318.695312 40.609375 L 314.53125 43.960938 L 309.671875 48.152344 L 302.039062 46.476562 L 297.179688 39.773438 L 290.238281 39.773438 L 285.382812 37.257812 L 278.441406 41.449219 L 271.5 43.125 L 265.949219 47.3125 L 263.171875 42.285156 L 257.621094 41.449219 L 250.679688 38.097656 L 245.128906 29.71875 L 235.410156 37.257812 L 229.859375 45.636719 L 218.058594 50.664062 L 216.671875 45.636719 L 209.035156 43.125 L 203.484375 43.125 L 202.097656 32.234375 L 193.074219 38.097656 L 186.828125 39.773438 L 183.355469 35.585938 L 175.027344 38.097656 L 172.25 42.285156 L 160.453125 43.960938 L 148.65625 38.933594 L 147.265625 29.71875 L 131.996094 35.585938 L 127.832031 48.152344 L 116.726562 60.722656 L 108.398438 65.746094 L 107.707031 62.394531 L 96.601562 56.53125 L 91.046875 56.53125 L 88.273438 64.90625 L 81.332031 72.449219 L 70.921875 71.609375 L 57.042969 69.097656 L 50.792969 68.257812 L 43.855469 59.042969 L 35.523438 54.019531 L 33.441406 64.90625 L 26.5 70.773438 L 22.335938 75.800781 L 14.007812 77.476562 L 8.457031 67.425781 L 0.128906 61.554688 L -6.8125 63.234375 L -14.449219 73.289062 L -22.078125 69.9375 L -25.550781 63.234375 L -43.929688 66.917969 L -50.207031 69.808594 L -50.425781 141.597656 L -50.355469 141.597656 L -50.355469 391.859375 L -50.425781 391.859375 L -50.207031 463.648438 L -43.929688 466.539062 L -25.550781 470.226562 L -22.078125 463.523438 L -14.449219 460.171875 L -6.8125 470.226562 L 0.128906 471.902344 L 8.457031 466.035156 L 14.007812 455.980469 L 22.335938 457.660156 L 26.5 462.683594 L 33.441406 468.550781 L 35.523438 479.441406 L 43.855469 474.414062 L 50.792969 465.199219 L 57.042969 464.363281 L 70.921875 461.847656 L 81.332031 461.011719 L 88.273438 468.550781 L 91.046875 476.929688 L 96.601562 476.929688 L 107.707031 471.066406 L 108.398438 467.714844 L 116.726562 472.738281 L 127.832031 485.308594 L 131.996094 497.875 L 147.265625 503.738281 L 148.65625 494.523438 L 160.453125 489.5 L 172.25 491.171875 L 175.027344 495.363281 L 183.355469 497.875 L 186.828125 493.683594 L 193.074219 495.363281 L 202.097656 501.226562 L 203.484375 490.332031 L 209.035156 490.332031 L 216.671875 487.820312 L 218.058594 482.796875 L 229.859375 487.820312 L 235.410156 496.203125 L 245.128906 503.738281 L 250.679688 495.363281 L 257.621094 492.011719 L 263.171875 491.171875 L 265.949219 486.148438 L 271.5 490.332031 L 278.441406 492.011719 L 285.382812 496.203125 L 290.238281 493.683594 L 297.179688 493.683594 L 302.039062 486.980469 L 309.671875 485.308594 L 314.53125 489.5 L 318.695312 492.851562 L 322.859375 491.171875 L 324.25 486.980469 L 329.800781 492.011719 L 336.742188 496.203125 L 337.433594 492.851562 L 337.433594 485.308594 L 342.984375 476.929688 L 346.457031 470.226562 L 346.457031 465.199219 L 349.234375 458.496094 L 356.171875 461.011719 L 359.644531 461.011719 L 364.722656 457.660156 L 374.914062 462.683594 L 379.078125 473.578125 L 386.019531 481.957031 L 395.039062 487.820312 L 396.425781 480.28125 L 399.207031 474.414062 L 404.757812 472.738281 L 410.308594 470.226562 L 416.554688 459.332031 L 422.800781 456.820312 L 432.519531 452.628906 L 440.15625 453.46875 L 445.011719 456.820312 L 448.480469 451.796875 L 452.648438 452.628906 L 457.503906 446.765625 L 462.363281 439.222656 L 469.304688 441.738281 L 474.855469 443.414062 L 476.9375 453.46875 L 483.878906 457.660156 L 488.042969 450.957031 L 494.289062 449.277344 L 500.535156 451.796875 L 506.089844 445.925781 L 515.109375 449.277344 L 521.359375 441.738281 L 528.296875 438.386719 L 536.625 446.765625 L 542.175781 442.574219 L 551.199219 438.386719 L 561.613281 435.035156 L 572.023438 434.199219 L 576.878906 430.847656 L 582.433594 423.308594 L 591.453125 425.820312 L 597.007812 431.683594 L 603.253906 428.332031 L 608.804688 424.980469 L 623.382812 430.007812 L 628.238281 440.0625 L 628.933594 449.277344 L 635.179688 445.925781 L 642.816406 439.222656 L 653.921875 434.199219 L 658.777344 429.171875 L 673.351562 424.144531 L 678.210938 427.496094 L 685.84375 427.496094 L 688.621094 433.359375 L 696.257812 443.414062 L 699.03125 455.148438 L 711.523438 458.496094 L 718.46875 463.523438 L 720.546875 469.386719 L 730.960938 476.929688 L 745.535156 477.765625 L 754.554688 471.066406 L 760.109375 461.011719 L 767.742188 460.171875 L 773.988281 463.523438 L 781.625 470.226562 L 786.484375 468.550781 L 791.339844 457.660156 L 807.996094 454.308594 L 818.40625 460.171875 L 817.714844 467.714844 L 832.289062 470.226562 L 838.535156 463.523438 L 848.945312 462.683594 L 856.582031 469.386719 L 861.4375 470.226562 L 881.566406 472.738281 L 889.894531 463.523438 L 909.328125 460.171875 L 921.820312 468.550781 L 925.289062 475.253906 L 935.007812 483.632812 L 939.171875 498.714844 L 950.277344 512.121094 L 959.992188 503.738281 L 969.015625 501.226562 L 980.816406 500.386719 L 983.59375 493.683594 L 1003.023438 493.683594 L 1017.597656 487.820312 L 1027.316406 476.929688 L 1035.644531 481.117188 L 1045.359375 476.929688 L 1055.769531 482.796875 L 1066.183594 497.035156 L 1075.207031 482.796875 L 1088.394531 476.089844 L 1102.714844 474.414062 L 1102.714844 481.957031 L 1121.707031 486.980469 L 1128.648438 480.28125 L 1134.890625 480.28125 L 1143.917969 482.796875 L 1150.160156 475.253906 L 1154.328125 481.957031 L 1164.042969 484.46875 L 1179.3125 486.980469 L 1188.332031 490.332031 L 1196.664062 500.386719 L 1210.542969 497.035156 L 1225.8125 490.332031 L 1232.058594 493.683594 L 1239 489.5 L 1249.410156 484.46875 L 1261.902344 492.011719 L 1268.84375 485.308594 L 1277.867188 489.5 L 1283.417969 485.308594 L 1302.851562 482.796875 L 1307.710938 492.851562 L 1316.039062 484.46875 L 1324.367188 478.605469 L 1325.753906 467.714844 L 1329.226562 474.414062 L 1335.46875 477.765625 L 1345.1875 485.308594 L 1347.964844 497.875 L 1354.210938 492.851562 L 1359.070312 486.148438 L 1370.175781 481.117188 L 1370.867188 471.902344 L 1375.03125 465.199219 L 1384.75 475.253906 L 1395.160156 483.632812 L 1395.855469 477.765625 L 1400.015625 481.117188 L 1409.734375 490.332031 L 1417.367188 495.363281 L 1421.535156 492.011719 L 1421.535156 484.46875 L 1428.472656 486.980469 L 1433.636719 489.742188 L 1438.882812 482.796875 L 1438.746094 391.859375 L 1438.746094 141.597656 L 1438.882812 50.664062 L 1433.636719 43.71875 L 1428.472656 46.476562 L 1421.535156 48.988281 L 1421.535156 41.449219 L 1417.367188 38.097656 L 1409.734375 43.125 L 1400.015625 52.339844 L 1395.855469 55.691406 L 1395.160156 49.828125 L 1384.75 58.203125 L 1375.03125 68.257812 L 1370.867188 61.554688 L 1370.175781 52.339844 L 1359.070312 47.3125 L 1354.210938 40.609375 L 1347.964844 35.585938 L 1345.1875 48.152344 L 1335.46875 55.691406 L 1329.226562 59.042969 L 1325.757812 65.746094 L 1324.367188 54.851562 L 1316.039062 48.988281 L 1307.710938 40.609375 L 1302.851562 50.664062 L 1283.417969 48.152344 L 1277.867188 43.960938 L 1268.84375 48.152344 L 1261.902344 41.449219 L 1249.410156 48.988281 L 1239 43.960938 L 1232.058594 39.773438 L 1225.8125 43.125 L 1210.542969 36.421875 L 1196.664062 33.070312 L 1188.332031 43.125 L 1179.3125 46.476562 L 1164.042969 48.988281 L 1154.328125 51.5 L 1150.160156 58.203125 L 1143.917969 50.664062 L 1134.890625 53.179688 L 1128.648438 53.179688 L 1121.707031 46.476562 L 1102.714844 51.5 L 1102.714844 59.042969 L 1088.394531 57.371094 L 1075.207031 50.664062 L 1066.183594 36.421875 L 1055.769531 50.664062 L 1045.359375 56.53125 L 1035.644531 52.339844 L 1027.316406 56.53125 L 1017.597656 45.636719 L 1003.023438 39.773438 L 983.59375 39.773438 L 980.816406 33.070312 L 969.015625 32.234375 L 959.992188 29.71875 Z M 950.277344 21.339844 " fill-opacity="1" fill-rule="nonzero"/></g><path fill="#056402" d="M 950.277344 43.128906 L 939.171875 55.34375 L 935.007812 69.085938 L 925.289062 76.71875 L 921.820312 82.824219 L 909.328125 90.464844 L 889.894531 87.410156 L 881.566406 79.011719 L 861.4375 81.300781 L 856.582031 82.066406 L 848.945312 88.171875 L 838.535156 87.410156 L 832.289062 81.300781 L 817.714844 83.589844 L 818.40625 90.464844 L 807.996094 95.808594 L 791.339844 92.753906 L 786.484375 82.824219 L 781.625 81.300781 L 773.988281 87.410156 L 767.742188 90.464844 L 760.109375 89.699219 L 754.554688 80.535156 L 745.535156 74.429688 L 730.960938 75.195312 L 720.546875 82.066406 L 718.46875 87.410156 L 711.523438 91.988281 L 699.03125 95.042969 L 696.257812 105.730469 L 688.621094 114.894531 L 685.84375 120.234375 L 678.210938 120.234375 L 673.351562 123.289062 L 658.777344 118.710938 L 653.921875 114.128906 L 642.816406 109.550781 L 635.179688 103.441406 L 628.933594 100.386719 L 628.238281 108.785156 L 623.382812 117.945312 L 608.804688 122.53125 L 603.253906 119.476562 L 597.007812 116.421875 L 591.453125 121.765625 L 582.433594 124.054688 L 576.878906 117.179688 L 572.023438 114.128906 L 561.613281 113.367188 L 551.199219 110.316406 L 542.175781 106.496094 L 536.625 102.675781 L 528.296875 110.316406 L 521.359375 107.261719 L 515.109375 100.386719 L 506.089844 103.441406 L 500.535156 98.097656 L 494.289062 100.386719 L 488.042969 98.859375 L 483.878906 92.753906 L 476.9375 96.570312 L 474.855469 105.730469 L 469.304688 107.261719 L 462.363281 109.550781 L 457.503906 102.675781 L 452.648438 97.332031 L 448.480469 98.097656 L 445.011719 93.519531 L 440.15625 96.570312 L 432.519531 97.332031 L 422.800781 93.519531 L 416.554688 91.226562 L 410.308594 81.300781 L 404.757812 79.011719 L 399.207031 77.484375 L 396.425781 72.140625 L 395.039062 65.265625 L 386.019531 70.609375 L 379.078125 78.246094 L 374.914062 88.171875 L 364.722656 92.753906 L 359.644531 89.699219 L 356.171875 89.699219 L 349.234375 91.988281 L 346.457031 85.878906 L 346.457031 81.300781 L 342.984375 75.195312 L 337.433594 67.558594 L 337.433594 60.6875 L 336.742188 57.632812 L 329.800781 61.449219 L 324.25 66.03125 L 322.859375 62.214844 L 318.695312 60.6875 L 314.53125 63.738281 L 309.671875 67.558594 L 302.039062 66.03125 L 297.179688 59.925781 L 290.238281 59.925781 L 285.382812 57.632812 L 278.441406 61.449219 L 271.5 62.976562 L 265.949219 66.792969 L 263.171875 62.214844 L 257.621094 61.449219 L 250.679688 58.398438 L 245.128906 50.761719 L 235.410156 57.632812 L 229.859375 65.265625 L 218.058594 69.847656 L 216.671875 65.265625 L 209.035156 62.976562 L 203.484375 62.976562 L 202.097656 53.054688 L 193.074219 58.398438 L 186.828125 59.925781 L 183.355469 56.109375 L 175.027344 58.398438 L 172.25 62.214844 L 160.453125 63.738281 L 148.65625 59.160156 L 147.265625 50.761719 L 131.996094 56.109375 L 127.832031 67.558594 L 116.726562 79.011719 L 108.398438 83.589844 L 107.707031 80.535156 L 96.601562 75.195312 L 91.046875 75.195312 L 88.273438 82.824219 L 81.332031 89.699219 L 70.921875 88.933594 L 57.042969 86.644531 L 50.792969 85.878906 L 43.855469 77.484375 L 35.523438 72.90625 L 33.441406 82.824219 L 26.5 88.171875 L 22.335938 92.753906 L 14.007812 94.28125 L 8.457031 85.121094 L 0.128906 79.773438 L -6.8125 81.300781 L -14.449219 90.464844 L -22.078125 87.410156 L -25.550781 81.300781 L -43.929688 84.660156 L -50.207031 87.292969 L -50.425781 152.710938 L -50.355469 152.710938 L -50.355469 380.75 L -50.425781 380.75 L -50.207031 446.164062 L -43.929688 448.800781 L -25.550781 452.160156 L -22.078125 446.050781 L -14.449219 442.996094 L -6.8125 452.160156 L 0.128906 453.683594 L 8.457031 448.339844 L 14.007812 439.175781 L 22.335938 440.707031 L 26.5 445.285156 L 33.441406 450.632812 L 35.523438 460.554688 L 43.855469 455.972656 L 50.792969 447.578125 L 57.042969 446.816406 L 70.921875 444.523438 L 81.332031 443.761719 L 88.273438 450.632812 L 91.046875 458.265625 L 96.601562 458.265625 L 107.707031 452.921875 L 108.398438 449.871094 L 116.726562 454.449219 L 127.832031 465.902344 L 131.996094 477.351562 L 147.265625 482.695312 L 148.65625 474.296875 L 160.453125 469.71875 L 172.25 471.246094 L 175.027344 475.0625 L 183.355469 477.351562 L 186.828125 473.535156 L 193.074219 475.0625 L 202.097656 480.40625 L 203.484375 470.480469 L 209.035156 470.480469 L 216.671875 468.191406 L 218.058594 463.613281 L 229.859375 468.191406 L 235.410156 475.828125 L 245.128906 482.695312 L 250.679688 475.0625 L 257.621094 472.007812 L 263.171875 471.246094 L 265.949219 466.667969 L 271.5 470.480469 L 278.441406 472.007812 L 285.382812 475.828125 L 290.238281 473.535156 L 297.179688 473.535156 L 302.039062 467.425781 L 309.671875 465.902344 L 314.53125 469.71875 L 318.695312 472.773438 L 322.859375 471.246094 L 324.25 467.425781 L 329.800781 472.007812 L 336.742188 475.828125 L 337.433594 472.773438 L 337.433594 465.902344 L 342.984375 458.265625 L 346.457031 452.160156 L 346.457031 447.578125 L 349.234375 441.46875 L 356.171875 443.761719 L 359.644531 443.761719 L 364.722656 440.707031 L 374.914062 445.285156 L 379.078125 455.210938 L 386.019531 462.847656 L 395.039062 468.191406 L 396.425781 461.320312 L 399.207031 455.972656 L 404.757812 454.449219 L 410.308594 452.160156 L 416.554688 442.230469 L 422.800781 439.941406 L 432.519531 436.125 L 440.15625 436.886719 L 445.011719 439.941406 L 448.480469 435.363281 L 452.648438 436.125 L 457.503906 430.78125 L 462.363281 423.90625 L 469.304688 426.199219 L 474.855469 427.726562 L 476.9375 436.886719 L 483.878906 440.707031 L 488.042969 434.597656 L 494.289062 433.070312 L 500.535156 435.363281 L 506.089844 430.015625 L 515.109375 433.070312 L 521.359375 426.199219 L 528.296875 423.144531 L 536.625 430.78125 L 542.175781 426.960938 L 551.199219 423.144531 L 561.613281 420.089844 L 572.023438 419.328125 L 576.878906 416.277344 L 582.433594 409.40625 L 591.453125 411.695312 L 597.007812 417.039062 L 603.253906 413.984375 L 608.804688 410.929688 L 623.382812 415.511719 L 628.238281 424.671875 L 628.933594 433.070312 L 635.179688 430.015625 L 642.816406 423.90625 L 653.921875 419.328125 L 658.777344 414.75 L 673.351562 410.167969 L 678.210938 413.222656 L 685.84375 413.222656 L 688.621094 418.566406 L 696.257812 427.726562 L 699.03125 438.417969 L 711.523438 441.46875 L 718.46875 446.050781 L 720.546875 451.394531 L 730.960938 458.265625 L 745.535156 459.027344 L 754.554688 452.921875 L 760.109375 443.761719 L 767.742188 442.996094 L 773.988281 446.050781 L 781.625 452.160156 L 786.484375 450.632812 L 791.339844 440.707031 L 807.996094 437.652344 L 818.40625 442.996094 L 817.714844 449.871094 L 832.289062 452.160156 L 838.535156 446.050781 L 848.945312 445.285156 L 856.582031 451.394531 L 861.4375 452.160156 L 881.566406 454.449219 L 889.894531 446.050781 L 909.328125 442.996094 L 921.820312 450.632812 L 925.289062 456.738281 L 935.007812 464.375 L 939.171875 478.117188 L 950.277344 490.332031 L 959.992188 482.695312 L 969.015625 480.40625 L 980.816406 479.640625 L 983.59375 473.535156 L 1003.023438 473.535156 L 1017.597656 468.191406 L 1027.316406 458.265625 L 1035.644531 462.082031 L 1045.359375 458.265625 L 1055.769531 463.613281 L 1066.183594 476.585938 L 1075.207031 463.613281 L 1088.394531 457.5 L 1102.714844 455.972656 L 1102.714844 462.847656 L 1121.707031 467.425781 L 1128.648438 461.320312 L 1134.890625 461.320312 L 1143.917969 463.613281 L 1150.160156 456.738281 L 1154.328125 462.847656 L 1164.042969 465.136719 L 1179.3125 467.425781 L 1188.332031 470.480469 L 1196.664062 479.640625 L 1210.542969 476.585938 L 1225.8125 470.480469 L 1232.058594 473.535156 L 1239 469.71875 L 1249.410156 465.136719 L 1261.902344 472.007812 L 1268.84375 465.902344 L 1277.867188 469.71875 L 1283.417969 465.902344 L 1302.851562 463.613281 L 1307.710938 472.773438 L 1316.039062 465.136719 L 1324.367188 459.792969 L 1325.753906 449.871094 L 1329.226562 455.972656 L 1335.46875 459.027344 L 1345.1875 465.902344 L 1347.964844 477.351562 L 1354.210938 472.773438 L 1359.070312 466.667969 L 1370.175781 462.082031 L 1370.867188 453.683594 L 1375.03125 447.578125 L 1384.75 456.738281 L 1395.160156 464.375 L 1395.855469 459.027344 L 1400.015625 462.082031 L 1409.734375 470.480469 L 1417.367188 475.0625 L 1421.535156 472.007812 L 1421.535156 465.136719 L 1428.472656 467.425781 L 1433.636719 469.941406 L 1438.882812 463.613281 L 1438.746094 380.75 L 1438.746094 152.710938 L 1438.882812 69.847656 L 1433.636719 63.519531 L 1428.472656 66.03125 L 1421.535156 68.320312 L 1421.535156 61.449219 L 1417.367188 58.398438 L 1409.734375 62.976562 L 1400.015625 71.375 L 1395.855469 74.429688 L 1395.160156 69.085938 L 1384.75 76.71875 L 1375.03125 85.878906 L 1370.867188 79.773438 L 1370.175781 71.375 L 1359.070312 66.792969 L 1354.210938 60.6875 L 1347.964844 56.109375 L 1345.1875 67.558594 L 1335.46875 74.429688 L 1329.226562 77.484375 L 1325.757812 83.589844 L 1324.367188 73.664062 L 1316.039062 68.320312 L 1307.710938 60.6875 L 1302.851562 69.847656 L 1283.417969 67.558594 L 1277.867188 63.738281 L 1268.84375 67.558594 L 1261.902344 61.449219 L 1249.410156 68.320312 L 1239 63.738281 L 1232.058594 59.925781 L 1225.8125 62.976562 L 1210.542969 56.871094 L 1196.664062 53.816406 L 1188.332031 62.976562 L 1179.3125 66.03125 L 1164.042969 68.320312 L 1154.328125 70.609375 L 1150.160156 76.71875 L 1143.917969 69.847656 L 1134.890625 72.140625 L 1128.648438 72.140625 L 1121.707031 66.03125 L 1102.714844 70.609375 L 1102.714844 77.484375 L 1088.394531 75.957031 L 1075.207031 69.847656 L 1066.183594 56.871094 L 1055.769531 69.847656 L 1045.359375 75.195312 L 1035.644531 71.375 L 1027.316406 75.195312 L 1017.597656 65.265625 L 1003.023438 59.925781 L 983.59375 59.925781 L 980.816406 53.816406 L 969.015625 53.054688 L 959.992188 50.761719 Z M 950.277344 43.128906 " fill-opacity="1" fill-rule="nonzero"/><path fill="#ff0013" d="M 743.5 530.355469 C 740.324219 534.976562 736.265625 539.875 732.441406 543.988281 C 733.308594 552.238281 733.210938 560.871094 729.894531 568.492188 C 725.46875 578.613281 715.730469 586.023438 712.703125 596.667969 C 711.8125 599.773438 711.792969 602.847656 713.328125 605.6875 C 711.472656 604.464844 709.023438 604.410156 706.90625 605.039062 C 704.761719 605.664062 702.09375 606.316406 700.265625 607.585938 C 695.578125 610.859375 691.894531 615.039062 687.574219 618.820312 C 683.773438 622.136719 679.996094 625.648438 675.402344 627.761719 C 669.972656 630.261719 663.71875 630.480469 657.730469 630.789062 C 656.820312 636.386719 655.0625 641.847656 652.515625 646.945312 C 651.605469 648.75 650.566406 650.578125 649.007812 651.871094 C 647.46875 653.167969 645.519531 653.867188 643.550781 654.375 C 634.003906 656.875 623.421875 655.238281 615.082031 649.972656 C 609.867188 654.183594 603.203125 659.203125 596.640625 660.480469 C 591.328125 661.511719 585.773438 660.429688 580.457031 661.46875 C 574.085938 662.71875 568.601562 667.550781 565.910156 673.445312 C 563.722656 669.648438 559.199219 667.671875 554.824219 667.382812 C 550.449219 667.121094 546.121094 668.273438 541.914062 669.5 C 537.703125 670.699219 533.425781 671.976562 529.046875 671.878906 C 525.964844 671.808594 522.9375 671.082031 519.957031 670.339844 C 516.683594 669.542969 513.394531 668.730469 510.121094 667.933594 C 508.609375 672.789062 504.042969 676.996094 499.617188 679.523438 C 497.019531 681.011719 494.207031 682.21875 491.226562 682.605469 C 486.175781 683.25 481.050781 681.40625 476.84375 678.539062 C 472.636719 675.671875 469.171875 671.878906 465.734375 668.101562 L 465.734375 667.863281 C 456.140625 674.503906 443.15625 675.921875 432.335938 671.546875 C 430.242188 670.707031 428.101562 669.621094 425.816406 669.789062 C 424.015625 669.929688 422.378906 670.820312 420.8125 671.710938 C 418.144531 673.226562 415.453125 674.738281 412.785156 676.253906 C 409.96875 671.441406 404.4375 669.613281 398.910156 668.824219 C 393.378906 668.035156 387.753906 668.511719 382.21875 667.792969 C 374.695312 666.832031 367.476562 663.609375 361.730469 658.660156 C 358.335938 662.628906 353.796875 665.105469 348.890625 666.835938 C 345.164062 668.160156 341.121094 668.929688 337.226562 668.160156 C 333.046875 667.34375 329.363281 664.816406 326.527344 661.640625 C 323.691406 658.464844 321.648438 654.039062 319.890625 650.171875 L 319.890625 650.148438 C 306.785156 654.574219 291.421875 652 280.355469 643.679688 C 278.867188 643.539062 277.328125 643.777344 275.957031 644.378906 C 275.257812 644.667969 274.609375 645.078125 274.15625 645.65625 C 273.410156 646.617188 273.261719 647.992188 272.351562 648.78125 C 271.441406 647.984375 271.292969 646.617188 270.550781 645.65625 C 270.09375 645.054688 269.421875 644.667969 268.746094 644.378906 C 267.375 643.777344 265.835938 643.539062 264.347656 643.679688 C 253.289062 652 237.917969 654.574219 224.8125 650.148438 L 224.8125 650.171875 C 223.058594 654.046875 220.992188 658.464844 218.175781 661.640625 C 215.339844 664.816406 211.632812 667.335938 207.476562 668.160156 C 203.582031 668.929688 199.542969 668.160156 195.816406 666.835938 C 190.886719 665.078125 186.367188 662.628906 182.972656 658.660156 C 177.226562 663.609375 170.007812 666.835938 162.484375 667.792969 C 156.957031 668.511719 151.304688 668.03125 145.792969 668.824219 C 140.265625 669.621094 134.734375 671.449219 131.921875 676.253906 C 129.25 674.738281 126.558594 673.226562 123.890625 671.710938 C 122.324219 670.820312 120.6875 669.933594 118.886719 669.789062 C 116.628906 669.621094 114.484375 670.699219 112.367188 671.546875 C 101.546875 675.945312 88.566406 674.503906 78.96875 667.863281 L 78.96875 668.03125 C 75.554688 671.808594 72.09375 675.605469 67.859375 678.464844 C 63.652344 681.328125 58.53125 683.15625 53.476562 682.535156 C 50.496094 682.148438 47.6875 680.949219 45.085938 679.453125 C 40.660156 676.925781 36.070312 672.71875 34.582031 667.863281 C 31.308594 668.660156 28.019531 669.472656 24.746094 670.269531 C 21.765625 670.988281 18.738281 671.738281 15.660156 671.808594 C 11.285156 671.90625 7 670.628906 2.789062 669.429688 C -1.417969 668.230469 -5.746094 667.050781 -10.121094 667.3125 C -14.496094 667.574219 -18.992188 669.570312 -21.207031 673.375 C -23.925781 667.484375 -29.402344 662.648438 -35.753906 661.398438 C -41.066406 660.363281 -46.621094 661.449219 -51.9375 660.410156 C -58.5 659.132812 -65.164062 654.109375 -70.378906 649.902344 C -78.722656 655.167969 -89.300781 656.804688 -98.847656 654.304688 C -100.796875 653.796875 -102.738281 653.105469 -104.304688 651.800781 C -105.871094 650.5 -106.902344 648.699219 -107.8125 646.875 C -110.339844 641.800781 -112.117188 636.316406 -113.027344 630.71875 C -119.011719 630.402344 -125.265625 630.191406 -130.699219 627.691406 C -135.292969 625.574219 -139.046875 622.066406 -142.867188 618.75 C -147.199219 614.996094 -149.769531 611.128906 -154.460938 607.855469 C -156.289062 606.578125 -160.058594 605.597656 -162.203125 604.96875 C -164.34375 604.347656 -166.769531 604.394531 -168.621094 605.617188 C -167.082031 602.78125 -167.421875 599.703125 -168.308594 596.597656 C -171.335938 585.96875 -181.078125 578.566406 -185.5 568.421875 C -188.816406 560.820312 -188.910156 552.191406 -188.046875 543.917969 C -191.84375 539.832031 -195.933594 534.898438 -199.105469 530.285156 C -201.125 527.328125 -203.074219 524.109375 -203.265625 520.523438 C -203.503906 516.125 -201.054688 512.039062 -198.265625 508.644531 C -195.0625 504.75 -191.316406 501.332031 -187.128906 498.546875 C -185.710938 497.609375 -184.242188 496.71875 -183.085938 495.46875 C -181.933594 494.21875 -181.117188 492.558594 -181.328125 490.875 C -182.625 481.691406 -180.007812 470.921875 -174.261719 463.660156 C -171.617188 460.34375 -168.371094 457.484375 -166.011719 453.96875 C -162.984375 449.496094 -161.515625 443.820312 -162.792969 438.554688 C -163.34375 436.296875 -164.355469 434.179688 -164.980469 431.964844 C -166.449219 426.726562 -165.601562 421.144531 -164.761719 415.78125 C -161.683594 412.320312 -161.105469 406.261719 -162.695312 401.882812 C -164.28125 397.527344 -167.289062 393.851562 -170.078125 390.148438 C -174.050781 384.882812 -177.726562 379.304688 -180.175781 373.171875 C -182.625 367.039062 -183.855469 360.304688 -182.816406 353.792969 C -186.929688 351.824219 -190.945312 348.867188 -194.164062 345.613281 C -197.367188 342.367188 -199.839844 338.300781 -200.753906 333.832031 C -201.882812 328.347656 -200.585938 322.554688 -197.890625 317.648438 C -195.199219 312.742188 -191.015625 308.582031 -186.519531 305.242188 C -188.777344 296.222656 -189.429688 286.320312 -185.320312 278 C -183.300781 273.914062 -180.246094 270.425781 -177.261719 266.960938 C -174.28125 263.496094 -171.277344 259.960938 -169.425781 255.78125 C -167.550781 251.617188 -166.730469 245.730469 -168.585938 241.570312 C -166.730469 242.773438 -164.28125 242.847656 -162.164062 242.21875 C -160.046875 241.597656 -158.148438 240.347656 -156.320312 239.070312 C -151.628906 235.800781 -147.160156 232.195312 -142.828125 228.441406 C -139.03125 225.125 -135.253906 221.609375 -130.660156 219.5 C -125.230469 217 -118.976562 216.78125 -112.988281 216.472656 C -112.078125 210.871094 -110.320312 205.414062 -107.773438 200.3125 C -106.863281 198.511719 -105.824219 196.683594 -104.265625 195.386719 C -102.726562 194.09375 -100.777344 193.394531 -98.808594 192.886719 C -89.261719 190.382812 -78.679688 192.019531 -70.339844 197.285156 C -65.125 193.078125 -58.460938 188.054688 -51.898438 186.78125 C -46.585938 185.746094 -41.03125 186.824219 -35.714844 185.792969 C -29.34375 184.542969 -23.859375 179.710938 -21.167969 173.816406 C -18.980469 177.613281 -14.457031 179.589844 -10.082031 179.878906 C -5.707031 180.140625 -1.378906 178.984375 2.828125 177.761719 C 7.039062 176.5625 11.316406 175.285156 15.695312 175.382812 C 18.777344 175.453125 21.804688 176.175781 24.785156 176.921875 C 28.058594 177.714844 31.347656 178.53125 34.621094 179.328125 C 36.132812 174.46875 40.699219 170.261719 45.125 167.734375 C 47.722656 166.246094 50.535156 165.042969 53.515625 164.65625 C 58.566406 164.007812 63.691406 165.855469 67.898438 168.722656 C 72.105469 171.589844 75.570312 175.382812 79.007812 179.160156 L 79.007812 179.328125 C 88.601562 172.6875 101.585938 171.269531 112.40625 175.644531 C 114.5 176.511719 116.640625 177.570312 118.925781 177.402344 C 120.726562 177.28125 122.363281 176.367188 123.929688 175.476562 C 126.597656 173.964844 129.289062 172.449219 131.957031 170.9375 C 134.773438 175.746094 140.304688 177.574219 145.832031 178.363281 C 151.363281 179.160156 156.988281 178.679688 162.523438 179.398438 C 170.046875 180.359375 177.265625 183.578125 183.011719 188.53125 C 186.40625 184.558594 190.945312 182.085938 195.851562 180.351562 C 199.578125 179.03125 203.621094 178.285156 207.515625 179.03125 C 211.695312 179.847656 215.378906 182.375 218.214844 185.546875 C 221.050781 188.722656 223.09375 193.148438 224.851562 197.015625 L 224.851562 197.042969 C 237.957031 192.617188 253.320312 195.1875 264.386719 203.507812 C 265.875 203.648438 267.414062 203.414062 268.785156 202.808594 C 269.484375 202.519531 270.132812 202.109375 270.585938 201.53125 C 271.332031 200.570312 271.480469 199.199219 272.390625 198.410156 C 273.300781 199.203125 273.449219 200.570312 274.191406 201.53125 C 274.648438 202.136719 275.320312 202.519531 275.996094 202.808594 C 277.367188 203.414062 278.90625 203.648438 280.394531 203.507812 C 291.453125 195.1875 306.824219 192.617188 319.929688 197.042969 L 319.929688 197.015625 C 321.683594 193.144531 323.75 188.722656 326.566406 185.546875 C 329.402344 182.375 333.109375 179.851562 337.265625 179.03125 C 341.160156 178.261719 345.199219 179.03125 348.925781 180.351562 C 353.855469 182.109375 358.375 184.558594 361.769531 188.53125 C 367.515625 183.578125 374.734375 180.351562 382.257812 179.398438 C 387.785156 178.679688 393.4375 179.160156 398.949219 178.363281 C 404.476562 177.570312 410.007812 175.742188 412.820312 170.9375 C 415.492188 172.449219 418.183594 173.964844 420.851562 175.476562 C 422.417969 176.367188 424.054688 177.253906 425.855469 177.402344 C 428.113281 177.570312 430.257812 176.492188 432.375 175.644531 C 443.195312 171.242188 456.175781 172.6875 465.773438 179.328125 L 465.773438 179.230469 C 469.1875 175.453125 472.648438 171.65625 476.882812 168.792969 C 481.117188 165.933594 486.210938 164.105469 491.265625 164.726562 C 494.246094 165.113281 497.054688 166.3125 499.65625 167.804688 C 504.082031 170.332031 508.671875 174.539062 510.160156 179.398438 C 513.433594 178.601562 516.722656 177.785156 519.996094 176.992188 C 522.976562 176.273438 526.003906 175.523438 529.082031 175.453125 C 533.457031 175.355469 537.742188 176.632812 541.953125 177.832031 C 546.160156 179.03125 550.488281 180.210938 554.863281 179.949219 C 559.238281 179.683594 563.734375 177.691406 565.949219 173.886719 C 568.667969 179.773438 574.144531 184.613281 580.496094 185.863281 C 585.808594 186.894531 591.363281 185.816406 596.679688 186.851562 C 603.242188 188.125 609.90625 193.148438 615.121094 197.355469 C 623.464844 192.089844 634.042969 190.457031 643.589844 192.957031 C 645.539062 193.464844 647.480469 194.15625 649.046875 195.457031 C 650.613281 196.753906 651.644531 198.5625 652.554688 200.386719 C 655.082031 205.457031 656.859375 210.941406 657.769531 216.542969 C 663.753906 216.855469 670.007812 217.070312 675.441406 219.570312 C 680.035156 221.6875 683.789062 225.195312 687.609375 228.511719 C 691.941406 232.265625 695.617188 236.445312 700.304688 239.742188 C 702.132812 241.019531 704.800781 241.667969 706.945312 242.289062 C 709.085938 242.914062 711.511719 242.867188 713.363281 241.644531 C 711.511719 245.824219 712.019531 251.695312 713.890625 255.851562 C 715.765625 260.011719 718.746094 263.566406 721.730469 267.03125 C 724.710938 270.496094 727.765625 273.957031 729.785156 278.070312 C 733.898438 286.390625 733.25 296.320312 730.984375 305.3125 C 735.457031 308.65625 739.644531 312.835938 742.359375 317.71875 C 745.050781 322.597656 746.347656 328.417969 745.21875 333.902344 C 744.308594 338.371094 741.824219 342.4375 738.632812 345.683594 C 735.4375 348.929688 731.414062 351.886719 727.285156 353.863281 C 728.316406 360.378906 727.089844 367.109375 724.640625 373.242188 C 722.191406 379.375 718.507812 384.929688 714.546875 390.21875 C 711.753906 393.921875 708.753906 397.605469 707.160156 401.953125 C 705.578125 406.308594 706.15625 412.363281 709.226562 415.851562 C 710.066406 421.214844 710.890625 426.796875 709.445312 432.035156 C 708.824219 434.273438 707.808594 436.390625 707.257812 438.625 C 705.980469 443.863281 707.449219 449.542969 710.476562 454.039062 C 712.859375 457.546875 716.105469 460.386719 718.726562 463.730469 C 724.472656 470.992188 727.097656 481.785156 725.796875 490.945312 C 725.558594 492.628906 726.398438 494.3125 727.554688 495.539062 C 728.707031 496.789062 730.175781 497.683594 731.59375 498.617188 C 735.777344 501.410156 739.527344 504.820312 742.730469 508.714844 C 745.519531 512.109375 747.972656 516.195312 747.734375 520.59375 C 747.464844 524.179688 745.519531 527.398438 743.5 530.355469 Z M 743.5 530.355469 " fill-opacity="1" fill-rule="nonzero"/><g clip-path="url(#8419bf9fe0)"><path fill="#056402" d="M -208.710938 158.105469 L 753.457031 158.105469 L 753.457031 689.269531 L -208.710938 689.269531 Z M -208.710938 158.105469 " fill-opacity="1" fill-rule="nonzero"/></g><path fill="#ff0013" d="M 1566.0625 530.355469 C 1562.890625 534.976562 1558.828125 539.875 1555.003906 543.988281 C 1555.871094 552.238281 1555.773438 560.871094 1552.460938 568.492188 C 1548.03125 578.613281 1538.296875 586.023438 1535.269531 596.667969 C 1534.375 599.773438 1534.355469 602.847656 1535.890625 605.6875 C 1534.035156 604.464844 1531.585938 604.410156 1529.46875 605.039062 C 1527.328125 605.664062 1524.660156 606.316406 1522.832031 607.585938 C 1518.140625 610.859375 1514.460938 615.039062 1510.136719 618.820312 C 1506.339844 622.136719 1502.5625 625.648438 1497.96875 627.761719 C 1492.535156 630.261719 1486.28125 630.480469 1480.296875 630.789062 C 1479.386719 636.386719 1477.628906 641.847656 1475.082031 646.945312 C 1474.171875 648.75 1473.132812 650.578125 1471.574219 651.871094 C 1470.035156 653.167969 1468.082031 653.867188 1466.113281 654.375 C 1456.570312 656.875 1445.984375 655.238281 1437.648438 649.972656 C 1432.433594 654.183594 1425.765625 659.203125 1419.207031 660.480469 C 1413.894531 661.511719 1408.339844 660.429688 1403.019531 661.46875 C 1396.652344 662.71875 1391.167969 667.550781 1388.472656 673.445312 C 1386.285156 669.648438 1381.765625 667.671875 1377.390625 667.382812 C 1373.015625 667.121094 1368.683594 668.273438 1364.476562 669.5 C 1360.269531 670.699219 1355.992188 671.976562 1351.609375 671.878906 C 1348.53125 671.808594 1345.503906 671.082031 1342.519531 670.339844 C 1339.25 669.542969 1335.957031 668.730469 1332.6875 667.933594 C 1331.171875 672.789062 1326.605469 676.996094 1322.179688 679.523438 C 1319.582031 681.011719 1316.773438 682.21875 1313.789062 682.605469 C 1308.742188 683.25 1303.617188 681.40625 1299.410156 678.539062 C 1295.199219 675.671875 1291.738281 671.878906 1288.300781 668.101562 L 1288.300781 667.863281 C 1278.703125 674.503906 1265.71875 675.921875 1254.898438 671.546875 C 1252.808594 670.707031 1250.664062 669.621094 1248.382812 669.789062 C 1246.578125 669.929688 1244.945312 670.820312 1243.378906 671.710938 C 1240.710938 673.226562 1238.015625 674.738281 1235.347656 676.253906 C 1232.53125 671.441406 1227.003906 669.613281 1221.472656 668.824219 C 1215.945312 668.035156 1210.320312 668.511719 1204.78125 667.792969 C 1197.257812 666.832031 1190.042969 663.609375 1184.296875 658.660156 C 1180.902344 662.628906 1176.359375 665.105469 1171.453125 666.835938 C 1167.726562 668.160156 1163.683594 668.929688 1159.792969 668.160156 C 1155.609375 667.34375 1151.925781 664.816406 1149.09375 661.640625 C 1146.257812 658.464844 1144.210938 654.039062 1142.453125 650.171875 L 1142.453125 650.148438 C 1129.347656 654.574219 1113.984375 652 1102.921875 643.679688 C 1101.433594 643.539062 1099.894531 643.777344 1098.519531 644.378906 C 1097.820312 644.667969 1097.175781 645.078125 1096.71875 645.65625 C 1095.972656 646.617188 1095.828125 647.992188 1094.914062 648.78125 C 1094.003906 647.984375 1093.859375 646.617188 1093.113281 645.65625 C 1092.65625 645.054688 1091.984375 644.667969 1091.3125 644.378906 C 1089.9375 643.777344 1088.398438 643.539062 1086.910156 643.679688 C 1075.851562 652 1060.484375 654.574219 1047.378906 650.148438 L 1047.378906 650.171875 C 1045.621094 654.046875 1043.554688 658.464844 1040.738281 661.640625 C 1037.90625 664.816406 1034.195312 667.335938 1030.039062 668.160156 C 1026.148438 668.929688 1022.105469 668.160156 1018.378906 666.835938 C 1013.453125 665.078125 1008.929688 662.628906 1005.535156 658.660156 C 999.789062 663.609375 992.574219 666.835938 985.050781 667.792969 C 979.519531 668.511719 973.867188 668.03125 968.359375 668.824219 C 962.828125 669.621094 957.300781 671.449219 954.484375 676.253906 C 951.816406 674.738281 949.121094 673.226562 946.453125 671.710938 C 944.886719 670.820312 943.253906 669.933594 941.449219 669.789062 C 939.191406 669.621094 937.050781 670.699219 934.933594 671.546875 C 924.113281 675.945312 911.128906 674.503906 901.53125 667.863281 L 901.53125 668.03125 C 898.121094 671.808594 894.65625 675.605469 890.421875 678.464844 C 886.214844 681.328125 881.097656 683.15625 876.042969 682.535156 C 873.058594 682.148438 870.25 680.949219 867.652344 679.453125 C 863.226562 676.925781 858.632812 672.71875 857.144531 667.863281 C 853.875 668.660156 850.582031 669.472656 847.3125 670.269531 C 844.328125 670.988281 841.300781 671.738281 838.222656 671.808594 C 833.847656 671.90625 829.5625 670.628906 825.355469 669.429688 C 821.148438 668.230469 816.816406 667.050781 812.441406 667.3125 C 808.066406 667.574219 803.570312 669.570312 801.359375 673.375 C 798.640625 667.484375 793.160156 662.648438 786.808594 661.398438 C 781.5 660.363281 775.945312 661.449219 770.625 660.410156 C 764.066406 659.132812 757.398438 654.109375 752.183594 649.902344 C 743.839844 655.167969 733.261719 656.804688 723.71875 654.304688 C 721.769531 653.796875 719.824219 653.105469 718.257812 651.800781 C 716.695312 650.5 715.660156 648.699219 714.75 646.875 C 712.222656 641.800781 710.445312 636.316406 709.535156 630.71875 C 703.550781 630.402344 697.296875 630.191406 691.863281 627.691406 C 687.269531 625.574219 683.519531 622.066406 679.695312 618.75 C 675.367188 614.996094 672.792969 611.128906 668.105469 607.855469 C 666.277344 606.578125 662.503906 605.597656 660.363281 604.96875 C 658.21875 604.347656 655.796875 604.394531 653.941406 605.617188 C 655.480469 602.78125 655.140625 599.703125 654.253906 596.597656 C 651.226562 585.96875 641.484375 578.566406 637.066406 568.421875 C 633.75 560.820312 633.652344 552.191406 634.519531 543.917969 C 630.722656 539.832031 626.628906 534.898438 623.460938 530.285156 C 621.441406 527.328125 619.488281 524.109375 619.296875 520.523438 C 619.058594 516.125 621.511719 512.039062 624.300781 508.644531 C 627.5 504.75 631.246094 501.332031 635.4375 498.546875 C 636.851562 497.609375 638.324219 496.71875 639.476562 495.46875 C 640.632812 494.21875 641.445312 492.558594 641.234375 490.875 C 639.9375 481.691406 642.554688 470.921875 648.304688 463.660156 C 650.945312 460.34375 654.191406 457.484375 656.550781 453.96875 C 659.578125 449.496094 661.046875 443.820312 659.773438 438.554688 C 659.21875 436.296875 658.207031 434.179688 657.585938 431.964844 C 656.117188 426.726562 656.960938 421.144531 657.804688 415.78125 C 660.882812 412.320312 661.460938 406.261719 659.867188 401.882812 C 658.285156 397.527344 655.277344 393.851562 652.484375 390.148438 C 648.515625 384.882812 644.839844 379.304688 642.390625 373.171875 C 639.9375 367.039062 638.707031 360.304688 639.746094 353.792969 C 635.632812 351.824219 631.621094 348.867188 628.398438 345.613281 C 625.199219 342.367188 622.722656 338.300781 621.8125 333.832031 C 620.683594 328.347656 621.976562 322.554688 624.671875 317.648438 C 627.367188 312.742188 631.546875 308.582031 636.046875 305.242188 C 633.789062 296.222656 633.132812 286.320312 637.246094 278 C 639.265625 273.914062 642.320312 270.425781 645.300781 266.960938 C 648.285156 263.496094 651.285156 259.960938 653.140625 255.78125 C 655.011719 251.617188 655.832031 245.730469 653.980469 241.570312 C 655.832031 242.773438 658.285156 242.847656 660.402344 242.21875 C 662.519531 241.597656 664.417969 240.347656 666.246094 239.070312 C 670.933594 235.800781 675.402344 232.195312 679.734375 228.441406 C 683.53125 225.125 687.308594 221.609375 691.902344 219.5 C 697.335938 217 703.589844 216.78125 709.574219 216.472656 C 710.484375 210.871094 712.242188 205.414062 714.789062 200.3125 C 715.699219 198.511719 716.738281 196.683594 718.296875 195.386719 C 719.835938 194.09375 721.789062 193.394531 723.757812 192.886719 C 733.300781 190.382812 743.886719 192.019531 752.222656 197.285156 C 757.4375 193.078125 764.101562 188.054688 770.664062 186.78125 C 775.976562 185.746094 781.53125 186.824219 786.847656 185.792969 C 793.21875 184.542969 798.703125 179.710938 801.398438 173.816406 C 803.585938 177.613281 808.105469 179.589844 812.480469 179.878906 C 816.855469 180.140625 821.1875 178.984375 825.394531 177.761719 C 829.601562 176.5625 833.878906 175.285156 838.261719 175.382812 C 841.339844 175.453125 844.367188 176.175781 847.351562 176.921875 C 850.621094 177.714844 853.914062 178.53125 857.183594 179.328125 C 858.699219 174.46875 863.265625 170.261719 867.691406 167.734375 C 870.289062 166.246094 873.097656 165.042969 876.082031 164.65625 C 881.128906 164.007812 886.253906 165.855469 890.460938 168.722656 C 894.667969 171.589844 898.132812 175.382812 901.570312 179.160156 L 901.570312 179.328125 C 911.167969 172.6875 924.152344 171.269531 934.972656 175.644531 C 937.0625 176.511719 939.207031 177.570312 941.488281 177.402344 C 943.292969 177.28125 944.925781 176.367188 946.492188 175.476562 C 949.160156 173.964844 951.855469 172.449219 954.523438 170.9375 C 957.339844 175.746094 962.867188 177.574219 968.398438 178.363281 C 973.925781 179.160156 979.550781 178.679688 985.085938 179.398438 C 992.613281 180.359375 999.828125 183.578125 1005.574219 188.53125 C 1008.96875 184.558594 1013.511719 182.085938 1018.417969 180.351562 C 1022.144531 179.03125 1026.183594 178.285156 1030.078125 179.03125 C 1034.261719 179.847656 1037.941406 182.375 1040.777344 185.546875 C 1043.613281 188.722656 1045.660156 193.148438 1047.417969 197.015625 L 1047.417969 197.042969 C 1060.523438 192.617188 1075.882812 195.1875 1086.949219 203.507812 C 1088.4375 203.648438 1089.976562 203.414062 1091.347656 202.808594 C 1092.046875 202.519531 1092.695312 202.109375 1093.152344 201.53125 C 1093.894531 200.570312 1094.042969 199.199219 1094.953125 198.410156 C 1095.867188 199.203125 1096.011719 200.570312 1096.757812 201.53125 C 1097.210938 202.136719 1097.886719 202.519531 1098.558594 202.808594 C 1099.933594 203.414062 1101.472656 203.648438 1102.960938 203.507812 C 1114.019531 195.1875 1129.386719 192.617188 1142.492188 197.042969 L 1142.492188 197.015625 C 1144.25 193.144531 1146.316406 188.722656 1149.132812 185.546875 C 1151.964844 182.375 1155.671875 179.851562 1159.832031 179.03125 C 1163.722656 178.261719 1167.765625 179.03125 1171.492188 180.351562 C 1176.417969 182.109375 1180.941406 184.558594 1184.332031 188.53125 C 1190.082031 183.578125 1197.296875 180.351562 1204.820312 179.398438 C 1210.351562 178.679688 1216 179.160156 1221.511719 178.363281 C 1227.039062 177.570312 1232.570312 175.742188 1235.386719 170.9375 C 1238.054688 172.449219 1240.75 173.964844 1243.417969 175.476562 C 1244.980469 176.367188 1246.617188 177.253906 1248.421875 177.402344 C 1250.679688 177.570312 1252.820312 176.492188 1254.9375 175.644531 C 1265.757812 171.242188 1278.742188 172.6875 1288.335938 179.328125 L 1288.335938 179.230469 C 1291.75 175.453125 1295.214844 171.65625 1299.445312 168.792969 C 1303.679688 165.933594 1308.773438 164.105469 1313.828125 164.726562 C 1316.8125 165.113281 1319.621094 166.3125 1322.21875 167.804688 C 1326.644531 170.332031 1331.238281 174.539062 1332.726562 179.398438 C 1335.996094 178.601562 1339.289062 177.785156 1342.558594 176.992188 C 1345.542969 176.273438 1348.570312 175.523438 1351.648438 175.453125 C 1356.023438 175.355469 1360.308594 176.632812 1364.515625 177.832031 C 1368.722656 179.03125 1373.054688 180.210938 1377.425781 179.949219 C 1381.800781 179.683594 1386.300781 177.691406 1388.511719 173.886719 C 1391.230469 179.773438 1396.710938 184.613281 1403.058594 185.863281 C 1408.371094 186.894531 1413.925781 185.816406 1419.242188 186.851562 C 1425.804688 188.125 1432.46875 193.148438 1437.683594 197.355469 C 1446.03125 192.089844 1456.609375 190.457031 1466.152344 192.957031 C 1468.101562 193.464844 1470.046875 194.15625 1471.609375 195.457031 C 1473.175781 196.753906 1474.210938 198.5625 1475.121094 200.386719 C 1477.648438 205.457031 1479.425781 210.941406 1480.335938 216.542969 C 1486.320312 216.855469 1492.574219 217.070312 1498.007812 219.570312 C 1502.597656 221.6875 1506.351562 225.195312 1510.175781 228.511719 C 1514.503906 232.265625 1518.179688 236.445312 1522.867188 239.742188 C 1524.695312 241.019531 1527.367188 241.667969 1529.507812 242.289062 C 1531.652344 242.914062 1534.074219 242.867188 1535.929688 241.644531 C 1534.074219 245.824219 1534.582031 251.695312 1536.453125 255.851562 C 1538.328125 260.011719 1541.3125 263.566406 1544.292969 267.03125 C 1547.277344 270.496094 1550.328125 273.957031 1552.351562 278.070312 C 1556.460938 286.390625 1555.8125 296.320312 1553.550781 305.3125 C 1558.019531 308.65625 1562.207031 312.835938 1564.921875 317.71875 C 1567.617188 322.597656 1568.910156 328.417969 1567.78125 333.902344 C 1566.871094 338.371094 1564.390625 342.4375 1561.195312 345.683594 C 1558 348.929688 1553.980469 351.886719 1549.847656 353.863281 C 1550.882812 360.378906 1549.65625 367.109375 1547.207031 373.242188 C 1544.753906 379.375 1541.074219 384.929688 1537.109375 390.21875 C 1534.320312 393.921875 1531.316406 397.605469 1529.726562 401.953125 C 1528.140625 406.308594 1528.71875 412.363281 1531.792969 415.851562 C 1532.632812 421.214844 1533.453125 426.796875 1532.007812 432.035156 C 1531.386719 434.273438 1530.375 436.390625 1529.820312 438.625 C 1528.546875 443.863281 1530.015625 449.542969 1533.042969 454.039062 C 1535.421875 457.546875 1538.667969 460.386719 1541.292969 463.730469 C 1547.039062 470.992188 1549.664062 481.785156 1548.359375 490.945312 C 1548.121094 492.628906 1548.964844 494.3125 1550.117188 495.539062 C 1551.273438 496.789062 1552.742188 497.683594 1554.160156 498.617188 C 1558.339844 501.410156 1562.09375 504.820312 1565.292969 508.714844 C 1568.085938 512.109375 1570.535156 516.195312 1570.296875 520.59375 C 1570.027344 524.179688 1568.085938 527.398438 1566.0625 530.355469 Z M 1566.0625 530.355469 " fill-opacity="1" fill-rule="nonzero"/><g clip-path="url(#57b262cd57)"><path fill="#056402" d="M 613.851562 158.105469 L 1576.019531 158.105469 L 1576.019531 689.269531 L 613.851562 689.269531 Z M 613.851562 158.105469 " fill-opacity="1" fill-rule="nonzero"/></g></svg>